<svg id="vector" xmlns="http://www.w3.org/2000/svg" width="40" height="40" viewBox="0 0 40 40"><path fill="#7E869E" d="M6.667,20C6.667,17.832 6.667,16.748 6.819,15.842C7.596,11.219 11.219,7.596 15.842,6.819C16.748,6.667 17.832,6.667 20,6.667V6.667C22.168,6.667 23.252,6.667 24.157,6.819C28.781,7.596 32.403,11.219 33.181,15.842C33.333,16.748 33.333,17.832 33.333,20V31.333C33.333,32.276 33.333,32.748 33.04,33.04C32.748,33.333 32.276,33.333 31.333,33.333H20C17.832,33.333 16.748,33.333 15.842,33.181C11.219,32.403 7.596,28.781 6.819,24.157C6.667,23.252 6.667,22.168 6.667,20V20Z" fill-opacity="0.25" id="path_0"/><path fill="#00000000" stroke-width="1" d="M14.167,17.5L25.833,17.5" stroke-linejoin="round" stroke="#222222" stroke-linecap="round" id="path_1"/><path fill="#00000000" stroke-width="1" d="M14.167,22.5H22.5" stroke-linejoin="round" stroke="#222222" stroke-linecap="round" id="path_2"/></svg>