<svg width="20" height="20" viewBox="0 0 20 20" fill="none" xmlns="http://www.w3.org/2000/svg">
<path d="M10.6491 19.2H12.111C12.7569 19.2 13.2806 18.6916 13.2806 18.0645C13.2806 17.4374 12.7569 16.929 12.111 16.929H2.16958C1.52368 16.929 1 17.4374 1 18.0645C1 18.6916 1.52368 19.2 2.16958 19.2H8.89468" stroke="#0A3C5C" stroke-miterlimit="10" stroke-linecap="round" stroke-linejoin="round"/>
<path d="M2.46198 16.929V2.16774C2.46198 1.54067 2.98566 1.03226 3.63156 1.03226H10.6491C11.295 1.03226 11.8186 1.54067 11.8186 2.16774V16.929" stroke="#0A3C5C" stroke-miterlimit="10" stroke-linecap="round" stroke-linejoin="round"/>
<path d="M8.89468 7.84517H5.38594C4.74003 7.84517 4.21635 7.33675 4.21635 6.70968V3.87097C4.21635 3.2439 4.74003 2.73549 5.38594 2.73549H8.89468C9.54059 2.73549 10.0643 3.2439 10.0643 3.87097V6.70968C10.0643 7.33675 9.54059 7.84517 8.89468 7.84517Z" stroke="#0A3C5C" stroke-miterlimit="10" stroke-linecap="round" stroke-linejoin="round"/>
<path d="M11.8186 9.83225H14.4502C15.0961 9.83225 15.6198 10.3407 15.6198 10.9677V13.3806C15.6198 13.9294 16.078 14.3742 16.6432 14.3742C17.2084 14.3742 17.6665 13.9294 17.6665 13.3806V8.12903" stroke="#0A3C5C" stroke-miterlimit="10" stroke-linecap="round" stroke-linejoin="round"/>
<path d="M16.2046 7.2774V6.99353C16.2046 6.52315 16.5972 6.14191 17.0817 6.14191H18.2513C18.7358 6.14191 19.1285 6.52315 19.1285 6.99353V7.2774C19.1285 7.74777 18.7358 8.12901 18.2513 8.12901H17.0817C16.5972 8.12901 16.2046 7.74777 16.2046 7.2774Z" stroke="#0A3C5C" stroke-miterlimit="10" stroke-linecap="round" stroke-linejoin="round"/>
<path d="M16.7894 5.29031V6.19046" stroke="#0A3C5C" stroke-miterlimit="10" stroke-linecap="round" stroke-linejoin="round"/>
<path d="M18.5437 5.29031V6.19046" stroke="#0A3C5C" stroke-miterlimit="10" stroke-linecap="round" stroke-linejoin="round"/>
</svg>
