<svg width="8" height="17" viewBox="0 0 8 17" fill="none" xmlns="http://www.w3.org/2000/svg">
<path d="M7.68 10.944C7.68 11.7547 7.46133 12.4373 7.024 12.992C6.58667 13.5467 5.90933 13.904 4.992 14.064V16.32H3.232V14.128C2.816 14.0853 2.384 14.0053 1.936 13.888C1.49867 13.76 1.024 13.5787 0.512 13.344L1.104 11.696C1.70133 11.952 2.208 12.1333 2.624 12.24C3.05067 12.336 3.46667 12.384 3.872 12.384C5.10933 12.384 5.728 11.9253 5.728 11.008C5.728 10.6347 5.632 10.3413 5.44 10.128C5.25867 9.91467 4.91733 9.728 4.416 9.568L3.104 9.136C1.536 8.624 0.752 7.59467 0.752 6.048C0.752 5.29067 0.954667 4.64 1.36 4.096C1.76533 3.552 2.38933 3.2 3.232 3.04V0.799999H4.992V3.008C5.36533 3.05067 5.73867 3.12533 6.112 3.232C6.48533 3.33867 6.87467 3.48267 7.28 3.664L6.688 5.312C6.176 5.10933 5.73867 4.96533 5.376 4.88C5.024 4.784 4.66133 4.736 4.288 4.736C3.79733 4.736 3.408 4.82667 3.12 5.008C2.84267 5.17867 2.704 5.49333 2.704 5.952C2.704 6.29333 2.8 6.576 2.992 6.8C3.19467 7.01333 3.52533 7.19467 3.984 7.344L5.296 7.776C6.08533 8.04267 6.67733 8.432 7.072 8.944C7.47733 9.44533 7.68 10.112 7.68 10.944Z" fill="black"/>
</svg>
