<svg id="vector" xmlns="http://www.w3.org/2000/svg" width="32" height="32" viewBox="0 0 32 32"><path fill="#FCB61A" d="M0,15.647a15.835,15.647 0,1 0,31.669 0a15.835,15.647 0,1 0,-31.669 0z" id="path_0"/><path fill="#7E869E" d="M16.319,12.519L10.427,18.176C10.205,18.388 10.094,18.495 10.021,18.627C9.948,18.759 9.917,18.91 9.854,19.21L9.228,22.216C9.159,22.548 9.124,22.714 9.218,22.81C9.312,22.905 9.478,22.873 9.811,22.809L13.021,22.193C13.309,22.138 13.454,22.11 13.582,22.043C13.711,21.977 13.817,21.875 14.029,21.672L19.941,15.997L16.319,12.519Z" fill-opacity="0.25" id="path_1"/><path fill="#00000000" d="M16.887,12.011L16.864,12.033L10.425,18.215C10.413,18.226 10.401,18.238 10.388,18.25C10.222,18.409 10.063,18.562 9.949,18.755C9.836,18.949 9.78,19.163 9.722,19.386C9.718,19.402 9.714,19.418 9.71,19.435L9.157,21.558C9.154,21.568 9.152,21.577 9.149,21.587C9.109,21.741 9.064,21.915 9.048,22.063C9.03,22.228 9.029,22.527 9.268,22.771C9.507,23.014 9.806,23.019 9.971,23.004C10.12,22.991 10.294,22.949 10.449,22.912C10.459,22.91 10.468,22.907 10.478,22.905L12.762,22.357L12.762,22.357C12.764,22.356 12.766,22.356 12.768,22.355C12.782,22.352 12.796,22.349 12.81,22.345C13.024,22.294 13.231,22.245 13.42,22.142C13.609,22.038 13.762,21.891 13.921,21.738C13.932,21.727 13.944,21.715 13.956,21.704L13.956,21.704L20.301,15.613L20.325,15.59C20.614,15.313 20.869,15.068 21.051,14.845C21.247,14.605 21.414,14.328 21.447,13.976L20.85,13.919L21.447,13.976C21.457,13.875 21.457,13.772 21.447,13.67L20.85,13.728L21.447,13.67C21.414,13.319 21.247,13.042 21.051,12.802C20.869,12.579 20.614,12.334 20.325,12.057L20.301,12.033L20.277,12.011C20.01,11.754 19.772,11.526 19.556,11.363C19.324,11.186 19.058,11.038 18.727,11.008C18.631,11 18.534,11 18.437,11.008C18.106,11.038 17.841,11.186 17.608,11.363C17.392,11.526 17.155,11.754 16.887,12.011Z" stroke-width="1.2" stroke="#33363F" id="path_2"/><path fill="#00000000" d="M16.318,12.519L19.94,15.997" stroke-width="1.2" stroke="#33363F" id="path_3"/></svg>