<svg width="24" height="25" viewBox="0 0 24 25" fill="none" xmlns="http://www.w3.org/2000/svg">
<path d="M9.76935 6.9415C10.556 4.9805 10.9493 4 11.6256 4C12.3019 4 12.6952 4.9805 13.4818 6.9415L13.5184 7.03281C13.9628 8.14068 14.185 8.69462 14.6379 9.0313C15.0907 9.36799 15.6852 9.42123 16.8741 9.52771L17.089 9.54696C19.0349 9.72122 20.0078 9.80835 20.2159 10.4273C20.4241 11.0463 19.7016 11.7037 18.2566 13.0183L17.7743 13.4571C17.0428 14.1226 16.677 14.4554 16.5065 14.8915C16.4747 14.9729 16.4483 15.0562 16.4274 15.141C16.3153 15.5957 16.4225 16.0784 16.6367 17.0439L16.7033 17.3444C17.097 19.1188 17.2938 20.0059 16.9502 20.3886C16.8217 20.5316 16.6548 20.6345 16.4694 20.6851C15.9732 20.8205 15.2687 20.2465 13.8598 19.0984C12.9346 18.3445 12.472 17.9676 11.9409 17.8828C11.732 17.8494 11.5191 17.8494 11.3102 17.8828C10.7791 17.9676 10.3165 18.3445 9.39138 19.0984C7.98242 20.2465 7.27795 20.8205 6.78175 20.6851C6.59633 20.6345 6.42942 20.5316 6.301 20.3886C5.95732 20.0059 6.15415 19.1188 6.54783 17.3444L6.6145 17.0439C6.82871 16.0784 6.93582 15.5957 6.82376 15.141C6.80286 15.0562 6.77642 14.9729 6.74462 14.8915C6.57415 14.4554 6.2084 14.1226 5.47689 13.4571L4.99461 13.0184C3.54956 11.7037 2.82704 11.0463 3.03522 10.4273C3.2434 9.80835 4.21631 9.72122 6.16212 9.54696L6.37706 9.52771C7.56597 9.42123 8.16043 9.36799 8.61328 9.0313C9.06613 8.69462 9.28833 8.14068 9.73272 7.03281L9.76935 6.9415Z" stroke="#222222"/>
</svg>
