<svg width="26" height="30" viewBox="0 0 26 30" fill="none" xmlns="http://www.w3.org/2000/svg">
<path d="M7.97263 14.9415C8.78286 12.9805 9.18797 12 9.88461 12C10.5812 12 10.9864 12.9805 11.7966 14.9415L11.8343 15.0328C12.292 16.1407 12.5209 16.6946 12.9874 17.0313C13.4538 17.368 14.0661 17.4212 15.2907 17.5277L15.5121 17.547C17.5164 17.7212 18.5185 17.8084 18.7329 18.4273C18.9474 19.0463 18.2031 19.7037 16.7147 21.0183L16.2179 21.4571C15.4645 22.1226 15.0877 22.4554 14.9121 22.8915C14.8794 22.9729 14.8522 23.0562 14.8306 23.141C14.7152 23.5957 14.8255 24.0784 15.0462 25.0439L15.1148 25.3444C15.5203 27.1188 15.7231 28.0059 15.3691 28.3886C15.2368 28.5316 15.0649 28.6345 14.8739 28.6851C14.3628 28.8205 13.6372 28.2465 12.1859 27.0984C11.233 26.3445 10.7565 25.9676 10.2094 25.8828C9.99424 25.8494 9.77497 25.8494 9.55979 25.8828C9.01274 25.9676 8.53626 26.3445 7.58331 27.0984C6.13205 28.2465 5.40641 28.8205 4.89531 28.6851C4.70433 28.6345 4.5324 28.5316 4.40012 28.3886C4.04612 28.0059 4.24887 27.1188 4.65437 25.3444L4.72305 25.0439C4.94369 24.0784 5.05401 23.5957 4.93859 23.141C4.91706 23.0562 4.88983 22.9729 4.85707 22.8915C4.68148 22.4554 4.30474 22.1226 3.55127 21.4571L3.05451 21.0184C1.56607 19.7037 0.821848 19.0463 1.03628 18.4273C1.25071 17.8084 2.25283 17.7212 4.25708 17.547L4.47847 17.5277C5.70309 17.4212 6.3154 17.368 6.78185 17.0313C7.2483 16.6946 7.47717 16.1407 7.9349 15.0328L7.97263 14.9415Z" fill="#FFD600" stroke="#222222"/>
</svg>
