<svg width="24" height="20" viewBox="0 0 24 20" fill="none" xmlns="http://www.w3.org/2000/svg">
<path d="M3.73162 11.168L11.3388 18.3737C11.6387 18.6578 11.7886 18.7998 11.9708 18.8104C11.9902 18.8116 12.0098 18.8116 12.0292 18.8104C12.2114 18.7998 12.3613 18.6578 12.6612 18.3737L12.6612 18.3737L20.2684 11.168C22.3883 9.15996 22.6462 5.87395 20.8656 3.55973L20.5037 3.08949C18.3616 0.305512 14.0338 0.769813 12.531 3.94483C12.3189 4.39302 11.6811 4.39302 11.469 3.94483C9.96618 0.769813 5.63839 0.305512 3.49626 3.08949L3.13443 3.55973C1.35376 5.87395 1.61168 9.15995 3.73162 11.168Z" stroke="#222222" stroke-width="2"/>
</svg>
