<svg id="vector" xmlns="http://www.w3.org/2000/svg" width="17" height="24" viewBox="0 0 17 24"><path fill="#FCB61A" d="M7.733,0.004C6.534,0.114 5.345,0.477 4.328,1.043C3.6,1.448 3.062,1.849 2.473,2.425C1.3,3.572 0.499,5.021 0.174,6.584C-0.116,7.981 -0.043,9.416 0.385,10.745C0.585,11.367 0.856,11.952 1.265,12.648C1.581,13.184 2.647,15.004 2.761,15.201C2.831,15.322 2.942,15.511 3.008,15.622C3.073,15.732 3.249,16.029 3.398,16.282C3.547,16.536 3.831,17.018 4.029,17.354C4.226,17.69 4.534,18.212 4.712,18.515C4.891,18.818 5.103,19.178 5.185,19.316C5.267,19.454 5.477,19.81 5.652,20.107C5.827,20.404 6.08,20.833 6.213,21.058C6.346,21.284 6.478,21.509 6.506,21.558C6.534,21.607 6.585,21.692 6.619,21.748C6.693,21.87 7.324,22.94 7.55,23.329C7.754,23.678 7.881,23.812 8.105,23.916C8.243,23.98 8.289,23.991 8.447,23.999C8.765,24.013 9.018,23.912 9.223,23.688C9.274,23.632 9.427,23.394 9.564,23.159C9.702,22.923 9.881,22.618 9.963,22.48C10.045,22.343 10.274,21.955 10.472,21.619C10.67,21.283 10.975,20.765 11.151,20.468C12.08,18.892 12.713,17.818 13.281,16.853C13.453,16.561 13.758,16.043 13.959,15.702C14.16,15.36 14.396,14.959 14.483,14.811C14.569,14.662 14.788,14.288 14.969,13.979C15.243,13.514 15.608,12.89 15.78,12.592C16.491,11.365 16.813,10.43 16.973,9.133C17.009,8.837 17.009,7.685 16.973,7.401C16.874,6.63 16.737,6.047 16.509,5.433C16.17,4.522 15.611,3.591 14.971,2.87C13.723,1.464 12.047,0.502 10.219,0.143C9.586,0.018 9.454,0.007 8.606,0.001C8.171,-0.001 7.778,-0 7.733,0.004ZM9.253,5.327C9.612,5.4 9.851,5.482 10.199,5.65C10.598,5.843 10.835,6.009 11.167,6.33C11.549,6.698 11.785,7.029 11.985,7.474C12.605,8.853 12.302,10.459 11.22,11.534C10.691,12.059 10.079,12.395 9.344,12.565C8.978,12.65 8.386,12.673 7.988,12.618C6.511,12.416 5.309,11.406 4.866,9.995C4.758,9.651 4.733,9.457 4.733,8.953C4.733,8.524 4.738,8.448 4.782,8.242C5.107,6.719 6.309,5.573 7.856,5.31C8.13,5.264 8.169,5.262 8.606,5.27C8.934,5.276 9.052,5.286 9.253,5.327Z" fill-rule="evenodd" id="path_0"/></svg>