<svg width="25" height="24" viewBox="0 0 25 24" fill="none" xmlns="http://www.w3.org/2000/svg">
<path d="M10.6199 14.3H12.1006L12.1006 18.7899L12.1006 18.8221C12.1006 19.2296 12.1006 19.5779 12.1279 19.8283C12.1417 19.9546 12.1666 20.1038 12.2272 20.2378C12.2933 20.384 12.4312 20.569 12.6851 20.6264C12.939 20.6839 13.1431 20.5762 13.2657 20.4727C13.3781 20.3779 13.4648 20.2539 13.5316 20.1458C13.664 19.9316 13.814 19.6172 13.9893 19.2495L14.0032 19.2203L16.8378 13.2761L16.8554 13.2392C17.1469 12.6279 17.39 12.1183 17.5173 11.7031C17.6496 11.2717 17.6977 10.8166 17.4345 10.3995C17.1714 9.98247 16.7398 9.82994 16.2936 9.76371C15.8639 9.69995 15.2993 9.69997 14.6221 9.7L14.5812 9.7H13.1006L13.1006 5.21014L13.1006 5.17786C13.1006 4.77043 13.1006 4.42209 13.0733 4.17172C13.0595 4.04544 13.0346 3.89622 12.9739 3.76218C12.9078 3.61604 12.7699 3.43099 12.5161 3.37356C12.2622 3.31613 12.0581 3.42381 11.9355 3.52726C11.8231 3.62214 11.7364 3.74611 11.6696 3.85416C11.5371 4.06838 11.3872 4.38281 11.2119 4.75058L11.198 4.77971L8.36337 10.7239L8.34578 10.7608C8.05426 11.3721 7.81123 11.8817 7.68385 12.2969C7.55153 12.7283 7.50346 13.1834 7.76663 13.6005C8.0298 14.0175 8.46134 14.1701 8.90762 14.2363C9.33726 14.3 9.90186 14.3 10.5791 14.3L10.6199 14.3Z" stroke="#33363F"/>
</svg>
