<svg width="9" height="19" viewBox="0 0 9 19" fill="none" xmlns="http://www.w3.org/2000/svg">
<path d="M4.02887 11.3158H2.51118C1.16753 11.3158 0.495713 11.3158 0.198411 10.8747C-0.0988917 10.4337 0.153164 9.81091 0.657274 8.56542L3.56539 1.38043C3.93808 0.459639 4.12443 -0.000755787 4.32665 0.0386173C4.52887 0.0779903 4.52887 0.574666 4.52887 1.56802V6.71053C4.52887 6.94623 4.52887 7.06408 4.60209 7.1373C4.67532 7.21053 4.79317 7.21053 5.02887 7.21053H6.54656C7.89021 7.21053 8.56203 7.21053 8.85933 7.65159C9.15663 8.09266 8.90458 8.7154 8.40047 9.96089L5.49235 17.1459C5.11966 18.0667 4.93331 18.5271 4.73109 18.4877C4.52887 18.4483 4.52887 17.9516 4.52887 16.9583V11.8158C4.52887 11.5801 4.52887 11.4622 4.45565 11.389C4.38242 11.3158 4.26457 11.3158 4.02887 11.3158Z" fill="#222222"/>
</svg>
