<svg width="24" height="27" viewBox="0 0 24 27" fill="none" xmlns="http://www.w3.org/2000/svg">
<path d="M9.30563 15.5732L6.43585 15.3123C4.90803 15.1735 4.14412 15.104 3.90146 14.5814C3.65881 14.0588 4.09869 13.4304 4.97845 12.1736L12.0612 2.05544C12.6424 1.22517 12.933 0.810035 13.1836 0.898309C13.4342 0.986584 13.4005 1.4922 13.3331 2.50343L12.8799 9.30194C12.8185 10.2221 12.7879 10.6822 13.0523 10.9919C13.3167 11.3015 13.7759 11.3433 14.6944 11.4268L17.5642 11.6877C19.092 11.8265 19.8559 11.896 20.0985 12.4186C20.3412 12.9412 19.9013 13.5696 19.0215 14.8264L11.9388 24.9446C11.3576 25.7748 11.067 26.19 10.8164 26.1017C10.5658 26.0134 10.5995 25.5078 10.6669 24.4966L11.1201 17.6981C11.1815 16.7779 11.2121 16.3178 10.9477 16.0081C10.6833 15.6985 10.2241 15.6567 9.30563 15.5732Z" fill="#222222"/>
<path d="M22.25 2L20 5H23L20.75 8" stroke="#7E869E" stroke-opacity="0.25" stroke-linecap="round" stroke-linejoin="round"/>
<path d="M3.25 20L1 23H4L1.75 26" stroke="#7E869E" stroke-opacity="0.25" stroke-linecap="round" stroke-linejoin="round"/>
</svg>
