<svg width="19" height="12" viewBox="0 0 19 12" fill="none" xmlns="http://www.w3.org/2000/svg">
<path d="M3.84663 0C3.42787 0 3.42467 0.637895 3.84663 0.631579H17.9119C18.0947 0.631579 18.2315 0.766737 18.2315 0.947368V9.15789C18.2315 9.57474 18.8709 9.57474 18.8709 9.15789V0.947368C18.8709 0.42821 18.4374 0 17.9119 0H3.84663ZM2.56797 1.26316C2.14985 1.26316 2.14985 1.89474 2.56797 1.89474H16.6332C16.8161 1.89474 16.9529 2.02989 16.9529 2.21053V10.4211C16.9529 10.8411 17.5986 10.8379 17.5922 10.4211V2.21053C17.5922 1.69137 17.1587 1.26316 16.6332 1.26316H2.56797ZM1.28932 2.52632C0.763787 2.52632 0.330322 2.95453 0.330322 3.47368V11.0526C0.330322 11.5718 0.763787 12 1.28932 12H15.3546C15.8801 12 16.3135 11.5718 16.3135 11.0526V3.47368C16.3135 2.95453 15.8801 2.52632 15.3546 2.52632H1.28932ZM1.28932 3.15789H15.3546C15.5374 3.15789 15.6742 3.29305 15.6742 3.47368V11.0526C15.6742 11.2333 15.5374 11.3684 15.3546 11.3684H1.28932C1.10647 11.3684 0.969651 11.2333 0.969651 11.0526V3.47368C0.969651 3.29305 1.10647 3.15789 1.28932 3.15789ZM1.92864 3.78947C1.75219 3.78947 1.60898 3.93095 1.60898 4.10526V5.36842C1.60898 5.79284 2.24831 5.78274 2.24831 5.36842V4.42105H3.2073C3.63693 4.42105 3.6267 3.78947 3.2073 3.78947H1.92864ZM8.32193 3.78947C6.38349 3.78947 4.80562 5.34821 4.80562 7.26316C4.80562 9.17811 6.38349 10.7368 8.32193 10.7368C10.2604 10.7368 11.8382 9.17811 11.8382 7.26316C11.8382 5.34821 10.2604 3.78947 8.32193 3.78947ZM13.4366 3.78947C13.0172 3.78947 13.0069 4.42105 13.4366 4.42105H14.3956V5.36842C14.3956 5.78274 15.0349 5.79284 15.0349 5.36842V4.10526C15.0349 3.93095 14.8917 3.78947 14.7152 3.78947H13.4366ZM8.32193 4.42105C9.91386 4.42105 11.1989 5.69053 11.1989 7.26316C11.1989 8.83579 9.91386 10.1053 8.32193 10.1053C6.73 10.1053 5.44495 8.83579 5.44495 7.26316C5.44495 5.69053 6.73 4.42105 8.32193 4.42105ZM8.32193 5.05263C8.14484 5.05263 8.00227 5.19347 8.00227 5.36842V5.74358C7.63274 5.87621 7.36294 6.22358 7.36294 6.63158C7.36294 7.14947 7.79768 7.57895 8.32193 7.57895C8.50095 7.57895 8.6416 7.71284 8.6416 7.89474C8.6416 8.07663 8.50095 8.21053 8.32193 8.21053H7.6826C7.46651 8.20737 7.36294 8.36716 7.36294 8.52632C7.36294 8.68547 7.46651 8.84526 7.6826 8.84211H8.00227V9.15789C8.00227 9.33284 8.14484 9.47368 8.32193 9.47368C8.49903 9.47368 8.6416 9.33284 8.6416 9.15789V8.78274C9.01113 8.65011 9.28093 8.30274 9.28093 7.89474C9.28093 7.37684 8.84618 6.94737 8.32193 6.94737C8.14292 6.94737 8.00227 6.81347 8.00227 6.63158C8.00227 6.44968 8.14292 6.31579 8.32193 6.31579H8.96126C9.17736 6.31895 9.28093 6.15916 9.28093 6C9.28093 5.84084 9.17736 5.68105 8.96126 5.68421H8.6416V5.36842C8.6416 5.19347 8.49903 5.05263 8.32193 5.05263ZM1.92864 8.84337C1.76881 8.84211 1.60898 8.94568 1.60898 9.15789V10.4211C1.60898 10.5954 1.75219 10.7368 1.92864 10.7368H3.2073C3.6267 10.7368 3.63693 10.1053 3.2073 10.1053H2.24831V9.15789C2.24831 8.95074 2.08848 8.84463 1.92864 8.84337ZM14.7152 8.84337C14.5554 8.84463 14.3956 8.95074 14.3956 9.15789V10.1053H13.4366C13.0069 10.1053 13.0172 10.7368 13.4366 10.7368H14.7152C14.8917 10.7368 15.0349 10.5954 15.0349 10.4211V9.15789C15.0349 8.94568 14.8751 8.84211 14.7152 8.84337Z" fill="black"/>
</svg>
