<svg id="vector" xmlns="http://www.w3.org/2000/svg" width="40" height="40" viewBox="0 0 40 40"><path fill="#7E869E" d="M10.333,5L29.667,5A2,2 0,0 1,31.667 7L31.667,33A2,2 0,0 1,29.667 35L10.333,35A2,2 0,0 1,8.333 33L8.333,7A2,2 0,0 1,10.333 5z" fill-opacity="0.25" id="path_0"/><path fill="#00000000" stroke-width="1" d="M15.833,12.5L24.167,12.5" stroke="#222222" stroke-linecap="round" id="path_1"/><path fill="#00000000" stroke-width="1" d="M15.833,17.5L20.833,17.5" stroke="#222222" stroke-linecap="round" id="path_2"/><path fill="#00000000" stroke-width="1" d="M15.833,22.5L22.5,22.5" stroke="#222222" stroke-linecap="round" id="path_3"/><path fill="#00000000" stroke-width="1" d="M15.833,27.5L20.833,27.5" stroke="#222222" stroke-linecap="round" id="path_4"/><path fill="#222222" d="M12.5,11.667L12.5,11.667A0.833,0.833 0,0 1,13.333 12.5L13.333,12.5A0.833,0.833 0,0 1,12.5 13.333L12.5,13.333A0.833,0.833 0,0 1,11.667 12.5L11.667,12.5A0.833,0.833 0,0 1,12.5 11.667z" id="path_5"/><path fill="#222222" d="M12.5,16.667L12.5,16.667A0.833,0.833 0,0 1,13.333 17.5L13.333,17.5A0.833,0.833 0,0 1,12.5 18.333L12.5,18.333A0.833,0.833 0,0 1,11.667 17.5L11.667,17.5A0.833,0.833 0,0 1,12.5 16.667z" id="path_6"/><path fill="#222222" d="M12.5,21.667L12.5,21.667A0.833,0.833 0,0 1,13.333 22.5L13.333,22.5A0.833,0.833 0,0 1,12.5 23.333L12.5,23.333A0.833,0.833 0,0 1,11.667 22.5L11.667,22.5A0.833,0.833 0,0 1,12.5 21.667z" id="path_7"/><path fill="#222222" d="M12.5,26.667L12.5,26.667A0.833,0.833 0,0 1,13.333 27.5L13.333,27.5A0.833,0.833 0,0 1,12.5 28.333L12.5,28.333A0.833,0.833 0,0 1,11.667 27.5L11.667,27.5A0.833,0.833 0,0 1,12.5 26.667z" id="path_8"/></svg>