<svg id="vector" xmlns="http://www.w3.org/2000/svg" width="40" height="42" viewBox="0 0 40 42"><path fill="#222222" d="M19.667,13.667m-6.667,0a6.667,6.667 0,1 1,13.333 0a6.667,6.667 0,1 1,-13.333 0" id="path_0"/><path fill="#7E869E" d="M9.449,26.236C10.416,23.533 13.105,22 15.976,22H23.357C26.228,22 28.917,23.533 29.885,26.236C30.545,28.079 31.159,30.347 31.302,32.667C31.336,33.218 30.886,33.667 30.333,33.667H9C8.448,33.667 7.997,33.218 8.031,32.667C8.175,30.347 8.789,28.079 9.449,26.236Z" fill-opacity="0.25" id="path_1"/></svg>