<svg id="vector" xmlns="http://www.w3.org/2000/svg" width="18" height="16" viewBox="0 0 18 16"><path fill="#00000000" stroke-width="1" d="M7.032,3.333m-2.833,0a2.833,2.833 0,1 1,5.667 0a2.833,2.833 0,1 1,-5.667 0" stroke="#707070" stroke-linecap="round" id="path_0"/><path fill="#00000000" stroke-width="1" d="M11.171,3.861C11.473,3.338 11.97,2.956 12.554,2.8C13.137,2.643 13.759,2.725 14.282,3.027C14.806,3.329 15.187,3.827 15.344,4.41C15.5,4.994 15.418,5.616 15.116,6.139C14.814,6.662 14.317,7.044 13.733,7.2C13.149,7.357 12.528,7.275 12.005,6.973C11.481,6.671 11.1,6.173 10.943,5.59C10.787,5.006 10.869,4.384 11.171,3.861L11.171,3.861Z" stroke="#707070" id="path_1"/><path fill="#707070" d="M13.055,14.006L13.55,13.933L13.055,14.006ZM12.144,14.5H1.921V15.5H12.144V14.5ZM1.504,14.079C1.636,13.188 1.968,11.864 2.79,10.774C3.592,9.708 4.884,8.833 7.032,8.833V7.833C4.558,7.833 2.975,8.866 1.991,10.172C1.025,11.454 0.658,12.967 0.515,13.933L1.504,14.079ZM7.032,8.833C9.181,8.833 10.472,9.708 11.275,10.774C12.097,11.864 12.429,13.188 12.561,14.079L13.55,13.933C13.407,12.967 13.04,11.454 12.074,10.172C11.09,8.866 9.507,7.833 7.032,7.833V8.833ZM1.921,14.5C1.631,14.5 1.474,14.283 1.504,14.079L0.515,13.933C0.384,14.823 1.107,15.5 1.921,15.5V14.5ZM12.144,15.5C12.958,15.5 13.681,14.823 13.55,13.933L12.561,14.079C12.591,14.283 12.434,14.5 12.144,14.5V15.5Z" id="path_2"/><path fill="#707070" d="M9.801,15V14.5L9.8,15.5L9.801,15ZM17.391,13.914L16.904,14.03L17.391,13.914ZM11.255,9.979L10.987,9.556L10.472,9.883L10.894,10.324L11.255,9.979ZM13.055,14.006L13.55,13.933L13.055,14.006ZM9.804,14.5C9.803,14.5 9.803,14.5 9.803,14.5L9.8,15.5C9.801,15.5 9.803,15.5 9.804,15.5V14.5ZM16.483,14.5H9.804V15.5H16.483V14.5ZM16.904,14.03C16.957,14.252 16.792,14.5 16.483,14.5V15.5C17.356,15.5 18.098,14.726 17.877,13.798L16.904,14.03ZM13.143,9.944C14.335,9.944 15.164,10.543 15.763,11.367C16.372,12.205 16.718,13.248 16.904,14.03L17.877,13.798C17.678,12.962 17.293,11.771 16.572,10.779C15.84,9.772 14.739,8.944 13.143,8.944V9.944ZM11.523,10.401C11.965,10.12 12.495,9.944 13.143,9.944V8.944C12.301,8.944 11.585,9.177 10.987,9.556L11.523,10.401ZM10.894,10.324C11.995,11.476 12.409,13.054 12.561,14.079L13.55,13.933C13.387,12.833 12.931,11.007 11.616,9.633L10.894,10.324ZM12.561,14.079C12.591,14.283 12.434,14.5 12.144,14.5V15.5C12.958,15.5 13.681,14.823 13.55,13.933L12.561,14.079ZM12.144,14.5H9.801V15.5H12.144V14.5Z" id="path_3"/></svg>