<svg id="vector" xmlns="http://www.w3.org/2000/svg" width="40" height="40" viewBox="0 0 40 40"><path fill="#00000000" stroke-width="1" d="M20,20m-15.5,0a15.5,15.5 0,1 1,31 0a15.5,15.5 0,1 1,-31 0" stroke="#FF0006" stroke-linecap="round" id="path_0"/><path fill="#00000000" stroke-width="1" d="M13.899,27.955C14.555,27.387 15.469,26.939 16.528,26.633C17.591,26.326 18.788,26.167 20,26.167C21.212,26.167 22.409,26.326 23.472,26.633C24.531,26.939 25.445,27.387 26.101,27.955" stroke="#FF0006" stroke-linecap="round" id="path_1"/><path fill="#222222" stroke-width="1" d="M15,16.667m-1.667,0a1.667,1.667 0,1 1,3.333 0a1.667,1.667 0,1 1,-3.333 0" stroke="#FF0006" stroke-linecap="round" id="path_2"/><path fill="#222222" stroke-width="1" d="M25,16.667m-1.667,0a1.667,1.667 0,1 1,3.333 0a1.667,1.667 0,1 1,-3.333 0" stroke="#FF0006" stroke-linecap="round" id="path_3"/></svg>