<svg id="vector" xmlns="http://www.w3.org/2000/svg" width="371" height="323" viewBox="0 0 371 323"><defs><clipPath id="clip_path_0"><path d="M0,0h372v323h-372z"/></clipPath></defs><g id="g_0"><path fill="#F2F2F2" d="M344.43,299.36L354.45,296.17C355.7,290.8 355.61,285.19 354.21,279.85C350.18,288.8 338.37,291 331.64,298.15C329.56,300.39 328.01,303.08 327.1,306C326.2,308.93 325.97,312.02 326.42,315.05L324.31,322.2C329.24,321.78 334.01,320.3 338.3,317.86C342.6,315.41 346.32,312.06 349.19,308.05C350.79,305.77 352.09,303.31 353.06,300.72C348.79,300.29 344.43,299.36 344.43,299.36Z" clip-path="url(#clip_path_0)"/><path fill="#F2F2F2" d="M333.72,286.13L341.27,278.81C339.99,273.43 337.42,268.46 333.78,264.3C334.17,274.11 324.57,281.35 321.73,290.75C320.87,293.69 320.68,296.78 321.18,299.8C321.67,302.83 322.84,305.7 324.6,308.21L325.9,315.55C330.12,312.98 333.73,309.52 336.49,305.41C339.24,301.31 341.08,296.66 341.86,291.78C342.27,289.03 342.34,286.25 342.06,283.49C338.04,285.01 333.72,286.13 333.72,286.13Z"/><path fill="#3F3D56" d="M283.52,21.45H1.1C0.8,21.44 0.53,21.32 0.32,21.11C0.11,20.9 -0,20.62 -0,20.32C-0,20.03 0.11,19.75 0.32,19.54C0.53,19.33 0.8,19.21 1.1,19.2H283.52C283.82,19.21 284.1,19.33 284.3,19.54C284.51,19.75 284.62,20.03 284.62,20.32C284.62,20.62 284.51,20.9 284.3,21.11C284.1,21.32 283.82,21.44 283.52,21.45Z"/><path fill="#3F3D56" d="M20.32,13.46C23.96,13.46 26.91,10.45 26.91,6.73C26.91,3.01 23.96,0 20.32,0C16.69,0 13.74,3.01 13.74,6.73C13.74,10.45 16.69,13.46 20.32,13.46Z"/><path fill="#3F3D56" d="M43.06,13.46C46.7,13.46 49.64,10.45 49.64,6.73C49.64,3.01 46.7,0 43.06,0C39.43,0 36.48,3.01 36.48,6.73C36.48,10.45 39.43,13.46 43.06,13.46Z"/><path fill="#3F3D56" d="M65.8,13.46C69.43,13.46 72.38,10.45 72.38,6.73C72.38,3.01 69.43,0 65.8,0C62.16,0 59.22,3.01 59.22,6.73C59.22,10.45 62.16,13.46 65.8,13.46Z"/><path fill="#3F3D56" d="M269.83,1.67H253.68C253.36,1.67 253.05,1.81 252.83,2.04C252.61,2.26 252.48,2.57 252.48,2.89C252.48,3.21 252.61,3.52 252.83,3.75C253.05,3.98 253.36,4.11 253.68,4.12H269.83C270.15,4.11 270.46,3.98 270.68,3.75C270.9,3.52 271.03,3.21 271.03,2.89C271.03,2.57 270.9,2.26 270.68,2.04C270.46,1.81 270.15,1.67 269.83,1.67Z"/><path fill="#3F3D56" d="M269.83,6.26H253.68C253.36,6.27 253.05,6.4 252.83,6.63C252.61,6.86 252.48,7.16 252.48,7.48C252.48,7.8 252.61,8.11 252.83,8.34C253.05,8.57 253.36,8.7 253.68,8.71H269.83C270.15,8.7 270.46,8.57 270.68,8.34C270.9,8.11 271.03,7.8 271.03,7.48C271.03,7.16 270.9,6.86 270.68,6.63C270.46,6.4 270.15,6.27 269.83,6.26Z"/><path fill="#3F3D56" d="M269.83,10.85H253.68C253.36,10.85 253.05,10.99 252.83,11.21C252.61,11.44 252.48,11.75 252.48,12.07C252.48,12.39 252.61,12.7 252.83,12.93C253.05,13.16 253.36,13.29 253.68,13.29H269.83C270.15,13.29 270.46,13.16 270.68,12.93C270.9,12.7 271.03,12.39 271.03,12.07C271.03,11.75 270.9,11.44 270.68,11.21C270.46,10.99 270.15,10.85 269.83,10.85Z"/><path fill="#E6E7E8" d="M21.88,67.09C26.37,67.09 30.02,63.45 30.02,58.95C30.02,54.46 26.37,50.81 21.88,50.81C17.38,50.81 13.74,54.46 13.74,58.95C13.74,63.45 17.38,67.09 21.88,67.09Z"/><path fill="#E6E7E8" d="M229.1,76.98H16.16C15.52,76.98 14.91,76.72 14.45,76.27C14,75.82 13.74,75.2 13.74,74.56C13.74,73.91 14,73.3 14.45,72.84C14.91,72.39 15.52,72.13 16.16,72.13H229.1C229.74,72.13 230.36,72.39 230.81,72.84C231.26,73.3 231.52,73.91 231.52,74.56C231.52,75.2 231.26,75.82 230.81,76.27C230.36,76.72 229.74,76.98 229.1,76.98Z"/><path fill="#E6E7E8" d="M173.25,86.56H16.16C15.52,86.56 14.91,86.3 14.45,85.85C14,85.39 13.74,84.78 13.74,84.13C13.74,83.49 14,82.88 14.45,82.42C14.91,81.97 15.52,81.71 16.16,81.71H173.25C173.9,81.71 174.51,81.97 174.97,82.42C175.42,82.88 175.68,83.49 175.68,84.13C175.68,84.78 175.42,85.39 174.97,85.85C174.51,86.3 173.9,86.56 173.25,86.56Z"/><path fill="#E6E7E8" d="M21.88,194.15C26.37,194.15 30.02,190.51 30.02,186.01C30.02,181.52 26.37,177.87 21.88,177.87C17.38,177.87 13.74,181.52 13.74,186.01C13.74,190.51 17.38,194.15 21.88,194.15Z"/><path fill="#E6E7E8" d="M229.1,204.04H16.16C15.85,204.04 15.53,203.98 15.24,203.86C14.94,203.74 14.67,203.56 14.45,203.33C14.22,203.11 14.04,202.84 13.92,202.54C13.8,202.25 13.74,201.93 13.74,201.62C13.74,201.3 13.8,200.98 13.92,200.69C14.04,200.39 14.22,200.13 14.45,199.9C14.67,199.68 14.94,199.5 15.24,199.38C15.53,199.25 15.85,199.19 16.16,199.19H229.1C229.77,199.23 230.41,199.52 230.88,200C231.36,200.48 231.63,201.13 231.65,201.8C231.63,202.12 231.55,202.43 231.41,202.71C231.27,202.99 231.08,203.25 230.84,203.45C230.6,203.66 230.33,203.82 230.03,203.92C229.73,204.02 229.41,204.06 229.1,204.04Z"/><path fill="#E6E7E8" d="M173.25,213.62H16.16C15.52,213.62 14.91,213.36 14.45,212.91C14,212.45 13.74,211.84 13.74,211.19C13.74,210.55 14,209.93 14.45,209.48C14.91,209.02 15.52,208.77 16.16,208.77H173.25C173.9,208.77 174.51,209.02 174.97,209.48C175.42,209.93 175.68,210.55 175.68,211.19C175.68,211.84 175.42,212.45 174.97,212.91C174.51,213.36 173.9,213.62 173.25,213.62Z"/><path fill="#E6E7E8" d="M21.88,125.83C26.37,125.83 30.02,122.19 30.02,117.69C30.02,113.2 26.37,109.55 21.88,109.55C17.38,109.55 13.74,113.2 13.74,117.69C13.74,122.19 17.38,125.83 21.88,125.83Z"/><path fill="#E6E7E8" d="M229.1,135.72H16.16C15.52,135.72 14.91,135.46 14.45,135.01C14,134.56 13.74,133.94 13.74,133.3C13.74,132.65 14,132.04 14.45,131.58C14.91,131.13 15.52,130.87 16.16,130.87H229.1C229.74,130.87 230.36,131.13 230.81,131.58C231.26,132.04 231.52,132.65 231.52,133.3C231.52,133.94 231.26,134.56 230.81,135.01C230.36,135.46 229.74,135.72 229.1,135.72Z"/><path fill="#E6E7E8" d="M199.45,145.3H16.16C15.52,145.3 14.91,145.04 14.45,144.59C14,144.13 13.74,143.52 13.74,142.88C13.74,142.23 14,141.62 14.45,141.16C14.91,140.71 15.52,140.45 16.16,140.45H199.45C200.09,140.45 200.7,140.71 201.16,141.16C201.61,141.62 201.87,142.23 201.87,142.88C201.87,143.52 201.61,144.13 201.16,144.59C200.7,145.04 200.09,145.3 199.45,145.3Z"/><path fill="#E6E7E8" d="M187.01,154.88H16.16C15.52,154.88 14.91,154.62 14.45,154.17C14,153.71 13.74,153.1 13.74,152.45C13.74,151.81 14,151.19 14.45,150.74C14.91,150.29 15.52,150.03 16.16,150.03H187.01C187.65,150.03 188.26,150.29 188.72,150.74C189.17,151.19 189.43,151.81 189.43,152.45C189.43,153.1 189.17,153.71 188.72,154.17C188.26,154.62 187.65,154.88 187.01,154.88Z"/><path fill="#6C63FF" d="M190.54,262.05C223.82,262.05 250.8,235.05 250.8,201.76C250.8,168.47 223.82,141.48 190.54,141.48C157.26,141.48 130.28,168.47 130.28,201.76C130.28,235.05 157.26,262.05 190.54,262.05Z"/><path fill="#3F3D56" d="M190.46,222.79C195.21,222.79 199.07,218.94 199.07,214.18C199.07,209.43 195.21,205.57 190.46,205.57C185.7,205.57 181.85,209.43 181.85,214.18C181.85,218.94 185.7,222.79 190.46,222.79Z"/><path fill="#6C63FF" d="M190.46,218.16C192.65,218.16 194.43,216.38 194.43,214.18C194.43,211.99 192.65,210.21 190.46,210.21C188.26,210.21 186.48,211.99 186.48,214.18C186.48,216.38 188.26,218.16 190.46,218.16Z"/><path fill="#ffffff" d="M206.44,233.35H174.64C171.49,233.35 168.48,232.1 166.25,229.87C164.02,227.64 162.77,224.62 162.77,221.47V206.89C162.77,203.74 164.02,200.72 166.25,198.49C168.48,196.27 171.49,195.01 174.64,195.01H206.44C209.59,195.01 212.6,196.27 214.83,198.49C217.06,200.72 218.31,203.74 218.31,206.89V221.47C218.31,224.62 217.06,227.64 214.83,229.87C212.6,232.1 209.59,233.35 206.44,233.35ZM174.64,196.26C171.82,196.26 169.12,197.38 167.13,199.37C165.14,201.37 164.01,204.07 164.01,206.89V221.47C164.01,224.29 165.14,227 167.13,228.99C169.12,230.99 171.82,232.11 174.64,232.11H206.44C209.26,232.11 211.96,230.99 213.95,228.99C215.95,227 217.07,224.29 217.07,221.47V206.89C217.07,204.07 215.95,201.37 213.95,199.37C211.96,197.38 209.26,196.26 206.44,196.26L174.64,196.26Z"/><path fill="#3F3D56" d="M172.76,225.44H200.98C202.45,225.44 203.9,225.15 205.25,224.59C206.6,224.03 207.83,223.21 208.87,222.17C209.9,221.13 210.73,219.9 211.29,218.55C211.85,217.2 212.14,215.74 212.14,214.28V202.07C212.13,200.72 211.88,199.38 211.4,198.12C212.78,199.15 213.89,200.49 214.66,202.04C215.43,203.58 215.83,205.28 215.83,207.01V219.21C215.83,220.68 215.54,222.13 214.98,223.48C214.42,224.83 213.6,226.06 212.57,227.1C211.53,228.14 210.3,228.96 208.95,229.52C207.59,230.08 206.14,230.37 204.68,230.37H176.46C174.2,230.37 171.99,229.68 170.13,228.39C168.27,227.11 166.84,225.28 166.04,223.17C167.97,224.64 170.33,225.44 172.76,225.44Z"/><path fill="#A0616A" d="M259.18,315.02L252.25,315.02L248.95,288.27L259.18,288.27L259.18,315.02Z"/><path fill="#2F2E41" d="M259.43,322.26L238.1,322.26V321.99C238.1,319.79 238.98,317.68 240.53,316.12C242.09,314.56 244.2,313.69 246.4,313.69H246.4L250.3,310.73L257.57,313.69L259.43,313.69L259.43,322.26Z"/><path fill="#A0616A" d="M308.25,315.02L315.18,315.02L318.48,288.27L308.25,288.27L308.25,315.02Z"/><path fill="#2F2E41" d="M308.01,322.26L329.33,322.26V321.99C329.33,319.79 328.46,317.68 326.9,316.12C325.34,314.56 323.23,313.69 321.03,313.69H321.03L317.14,310.73L309.87,313.69L308.01,313.69L308.01,322.26Z"/><path fill="#2F2E41" d="M248.64,268.6C248.75,267.08 249.56,258.63 249.56,258.63L251.51,240.72L254.95,193.25L255.17,190.15L273.18,186.69L285.49,180.79L300.12,185.46L311.51,189.74C311.51,189.74 311.53,191.57 311.62,193.77C311.73,196.67 311.94,200.21 312.43,201.14C313.24,202.77 313.04,211.51 313.04,211.51C313.04,211.51 313.85,229.31 314.86,231.26C315.88,233.21 316.09,237.27 315.78,238.09C315.47,238.9 316.8,260.27 316.8,260.27C316.8,260.27 320.2,298.09 318.07,303.8C315.93,309.5 307.86,305.76 307.86,305.76C307.86,305.76 308.25,304.24 305.91,303.52C303.57,302.81 296.44,249.18 296.44,249.18C296.44,249.18 295.11,238.19 293.9,235.04C292.68,231.88 291.55,223.03 291.55,223.03C291.55,223.03 284.03,208.38 283.93,205.12C283.93,205.12 282.94,202.07 282.01,205.42C281.08,208.78 278.34,216.82 278.34,216.82L275.66,226.69L272.51,241.45L270.47,253.87C270.47,253.87 267.42,270.35 266.93,271.06C266.44,271.77 266.93,286.83 266.93,286.83C266.93,286.83 264.57,299.66 261.23,301.89C257.9,304.13 249.06,301.93 249.06,301.93C249.06,301.93 248.54,270.13 248.64,268.6Z"/><path fill="#2F2E41" d="M256.33,146.85L260.33,158.92L255.39,164.8L257.57,167.04L255.96,170.2L251.78,203.38L274.71,212.09L282.44,202.4L288.53,212.09L315.07,205.6L308.3,163.29V160.52L306.39,155.18V143.87L311.44,110.21L296.38,104.93L289.17,99.23L286.84,107.25L276.92,105.49L276.66,99.46L269.07,106.64L262.67,108.46L255.02,110.21L254.04,112.65L255.99,112.16L255.68,143.9L256.33,146.85Z"/><path fill="#A0616A" d="M249.47,190.99L253.32,153.69L254.34,138.34L243.56,136.38C243.56,136.38 243.98,147.36 242.57,153.56C241.18,159.67 242.39,190.17 242.47,190.99C241.68,191.7 241.12,192.63 240.87,193.66C240.62,194.7 240.69,195.78 241.07,196.77C241.45,197.76 242.12,198.62 242.99,199.22C243.87,199.82 244.9,200.15 245.97,200.15C247.03,200.15 248.07,199.83 248.94,199.23C249.82,198.62 250.49,197.77 250.87,196.78C251.25,195.78 251.32,194.7 251.07,193.67C250.82,192.63 250.26,191.7 249.47,190.99Z"/><path fill="#2F2E41" d="M238.95,161.42L241.95,162.04L252.24,164.17L252.81,164.29L254.02,159.46L255.43,157.96L258.12,143.9L258.26,143.16L262.31,134.5L265.11,108.46L254.69,110.33C254.63,110.39 254.59,110.45 254.54,110.5C253.04,112.2 251.97,114.56 250.23,116.94C244.54,124.67 240.19,143.46 240.36,153.75C240.36,153.92 240.19,154.1 239.99,154.28C239.02,155.17 238.39,156.37 238.2,157.67C238.01,158.97 238.28,160.29 238.95,161.42Z"/><path fill="#A0616A" d="M316.5,190.99L312.65,153.69L311.63,138.34L322.41,136.38C322.41,136.38 321.99,147.36 323.4,153.56C324.79,159.67 323.58,190.17 323.5,190.99C324.29,191.7 324.85,192.63 325.1,193.66C325.35,194.7 325.28,195.78 324.9,196.77C324.52,197.76 323.85,198.62 322.98,199.22C322.1,199.82 321.07,200.15 320,200.15C318.94,200.15 317.9,199.83 317.03,199.23C316.15,198.62 315.48,197.77 315.1,196.78C314.72,195.78 314.65,194.7 314.9,193.67C315.15,192.63 315.71,191.7 316.5,190.99Z"/><path fill="#2F2E41" d="M327.02,161.42L324.02,162.04L313.73,164.17L313.16,164.29L311.95,159.46L310.54,157.96L307.85,143.9L307.71,143.16L303.66,134.5L304.59,108.46L311.28,110.33C311.34,110.39 311.39,110.45 311.43,110.5C312.93,112.2 314,114.56 315.74,116.94C321.42,124.67 325.78,143.46 325.61,153.75C325.61,153.92 325.78,154.1 325.98,154.28C326.95,155.17 327.58,156.37 327.77,157.67C327.96,158.97 327.69,160.29 327.02,161.42Z"/><path fill="#6C63FF" d="M271.76,112.31L276.66,99.46L289.17,99.23L293.33,112.31L308.25,195.71C308.25,195.71 262.53,208.45 262.99,193.14C263.48,177.04 265.68,155.66 265.68,155.66L271.76,112.31Z"/><path fill="#A0616A" d="M282.64,95.87C290.78,95.87 297.38,89.26 297.38,81.12C297.38,72.98 290.78,66.37 282.64,66.37C274.5,66.37 267.9,72.98 267.9,81.12C267.9,89.26 274.5,95.87 282.64,95.87Z"/><path fill="#2F2E41" d="M267.03,70.42C269.43,67.81 272.43,63.03 281.52,61.02C292.76,58.54 298.06,68.69 295.23,68.86C303.51,71.37 298.19,88.51 295.82,87.08C295.8,87.06 295.78,87.05 295.76,87.03C294.48,86.09 293.41,84.9 292.61,83.53C291.81,82.16 291.29,80.64 291.1,79.07L290.65,75.01C290.58,78.31 287.21,78.75 283.76,77.53C283.97,76.81 284.36,76.15 284.89,75.62C285.43,75.09 286.09,74.71 286.82,74.52C284.42,76.7 281.36,78.03 278.13,78.3C278.3,77.48 278.64,76.69 279.14,76.01C279.64,75.33 280.27,74.76 281.01,74.34L280.87,74.21C279.52,75.35 277.98,76.22 276.31,76.79C274.41,77.34 272.14,77.04 270.84,75.55C270.49,75.14 270.22,74.67 270.06,74.15C270.34,76.77 268.59,79.75 267.22,79.24C266.09,79.02 265.43,72.16 267.03,70.42Z"/><path fill="#CCCCCC" d="M372,322.26C372,322.36 371.98,322.45 371.94,322.54C371.91,322.63 371.85,322.71 371.78,322.78C371.71,322.85 371.63,322.91 371.54,322.94C371.45,322.98 371.36,323 371.26,323H197.01C196.81,323 196.63,322.92 196.49,322.78C196.35,322.64 196.27,322.46 196.27,322.26C196.27,322.06 196.35,321.88 196.49,321.74C196.63,321.6 196.81,321.52 197.01,321.52H371.26C371.36,321.52 371.45,321.54 371.54,321.58C371.63,321.61 371.71,321.67 371.78,321.74C371.85,321.8 371.91,321.89 371.94,321.98C371.98,322.07 372,322.16 372,322.26Z"/><path fill="#3F3D56" d="M191.03,169.07C185.14,169.07 179.96,171.74 177.02,175.75C180.16,173.47 183.94,172.25 187.82,172.28C196.95,172.28 204.37,178.68 204.37,186.54V193.08H207.58V183.33C207.58,175.47 200.16,169.07 191.03,169.07Z"/><path fill="#ffffff" d="M209.79,196.42H171.29V185.09C171.29,175.95 179.93,168.51 190.54,168.51C201.15,168.51 209.79,175.95 209.79,185.09V196.42ZM172.54,195.18H208.54V185.09C208.54,176.64 200.47,169.76 190.54,169.76C180.61,169.76 172.54,176.64 172.54,185.09V195.18Z"/><path fill="#ffffff" d="M200.4,192.1H180.68C179.79,192.1 178.95,191.74 178.32,191.11C177.69,190.49 177.34,189.64 177.34,188.75V184.24C177.34,177.95 183.26,172.84 190.54,172.84C197.82,172.84 203.74,177.95 203.74,184.24V188.75C203.74,189.64 203.39,190.49 202.76,191.11C202.14,191.74 201.29,192.1 200.4,192.1ZM190.54,174.08C183.95,174.08 178.58,178.64 178.58,184.24V188.75C178.58,189.31 178.8,189.84 179.2,190.24C179.59,190.63 180.13,190.85 180.68,190.85H200.4C200.96,190.85 201.49,190.63 201.88,190.24C202.28,189.84 202.5,189.31 202.5,188.75V184.24C202.5,178.64 197.13,174.08 190.54,174.08Z"/></g></svg>