<svg id="vector" xmlns="http://www.w3.org/2000/svg" width="865.76" height="682.89" viewBox="0 0 865.76 682.89"><path fill="#FCB61A" d="M228.21,38.87L789.35,38.87A22,22 0,0 1,811.35 60.87L811.35,622.01A22,22 0,0 1,789.35 644.01L228.21,644.01A22,22 0,0 1,206.21 622.01L206.21,60.87A22,22 0,0 1,228.21 38.87z" id="path_0"/><path fill="#fff" d="M228.21,38.87L789.35,38.87A22,22 0,0 1,811.35 60.87L811.35,622.01A22,22 0,0 1,789.35 644.01L228.21,644.01A22,22 0,0 1,206.21 622.01L206.21,60.87A22,22 0,0 1,228.21 38.87z" stroke-opacity="0.9" fill-opacity="0.9" id="path_1"/><path fill="#2f2e41" d="M206.21,116.97h605.14v1.09h-605.14z" id="path_2"/><path fill="#FCB61A" d="M206.21,113.7h291.43v3.81h-291.43z" id="path_3"/><path fill="#fff" d="M344.15,145.22L675.61,145.22A11.4,11.4 0,0 1,687.01 156.62L687.01,187.93A11.4,11.4 0,0 1,675.61 199.33L344.15,199.33A11.4,11.4 0,0 1,332.75 187.93L332.75,156.62A11.4,11.4 0,0 1,344.15 145.22z" id="path_4"/><path fill="#2f2e41" d="M644,167.34h19.93a0.6,0.6 0,0 1,0.44 1l-10,10.56a0.6,0.6 0,0 1,-0.87 0l-10,-10.56A0.6,0.6 0,0 1,644 167.34Z" id="path_5"/><path fill="#FCB61A" d="M707.4,185V159.61a0.7,0.7 0,0 1,1.16 -0.43L722,171.84a0.54,0.54 0,0 1,0 0.87l-13.45,12.71A0.7,0.7 0,0 1,707.4 185Z" id="path_6"/><path fill="#FCB61A" d="M311,160.53v25.38a0.7,0.7 0,0 1,-1.16 0.43l-13.45,-12.66a0.54,0.54 0,0 1,0 -0.87l13.45,-12.71A0.7,0.7 0,0 1,311 160.53Z" id="path_7"/><path fill="#2f2e41" d="M239.14,271.35h542.22v0.82h-542.22z" id="path_8"/><path fill="#2f2e41" d="M238.16,223.7h542.22v1h-542.22z" id="path_9"/><path fill="#2f2e41" d="M239.14,579.23h542.22v1h-542.22z" id="path_10"/><path fill="#2f2e41" d="M703.49,224.2h0.82v355.53h-0.82z" id="path_11"/><path fill="#2f2e41" d="M316.19,224.2h0.82v355.53h-0.82z" id="path_12"/><path fill="#2f2e41" d="M238.73,224.2h0.82v355.53h-0.82z" id="path_13"/><path fill="#2f2e41" d="M393.65,224.2h0.82v355.53h-0.82z" id="path_14"/><path fill="#2f2e41" d="M471.11,224.2h0.82v355.53h-0.82z" id="path_15"/><path fill="#2f2e41" d="M548.57,224.2h0.82v355.53h-0.82z" id="path_16"/><path fill="#2f2e41" d="M626.03,224.2h0.82v355.53h-0.82z" id="path_17"/><path fill="#2f2e41" d="M780.95,224.2h0.82v355.53h-0.82z" id="path_18"/><path fill="#2f2e41" d="M269.47,246a8.69,8.69 0,0 1,-3.42 -1.66,3.2 3.2,0 0,1 -1.07,-2.44 3.37,3.37 0,0 1,1.31 -2.71,5.22 5.22,0 0,1 3.4,-1.07 5.79,5.79 0,0 1,2.55 0.55,4.17 4.17,0 0,1 1.73,1.53 3.86,3.86 0,0 1,0.62 2.12h-1.84a2.54,2.54 0,0 0,-0.8 -2,3.26 3.26,0 0,0 -2.26,-0.72 3.33,3.33 0,0 0,-2.11 0.59,2 2,0 0,0 -0.75,1.66 1.78,1.78 0,0 0,0.72 1.43,6.87 6.87,0 0,0 2.44,1.08 11.11,11.11 0,0 1,2.71 1.07,4.18 4.18,0 0,1 1.45,1.37 3.51,3.51 0,0 1,0.47 1.83,3.22 3.22,0 0,1 -1.32,2.7 5.57,5.57 0,0 1,-3.51 1,6.48 6.48,0 0,1 -2.67,-0.55 4.46,4.46 0,0 1,-1.91 -1.5,3.62 3.62,0 0,1 -0.67,-2.16h1.84a2.37,2.37 0,0 0,0.93 2,3.87 3.87,0 0,0 2.48,0.73 3.58,3.58 0,0 0,2.22 -0.59,1.92 1.92,0 0,0 0.77,-1.61 1.86,1.86 0,0 0,-0.72 -1.57A8.16,8.16 0,0 0,269.47 246Z" id="path_19"/><path fill="#2f2e41" d="M283.05,251.17a3.75,3.75 0,0 1,-3 1.21,3.19 3.19,0 0,1 -2.51,-1 4.08,4.08 0,0 1,-0.87 -2.83v-6.71h1.76v6.66c0,1.56 0.63,2.34 1.9,2.34a2.65,2.65 0,0 0,2.69 -1.5v-7.5h1.76v10.31h-1.68Z" id="path_20"/><path fill="#2f2e41" d="M289.1,241.88l0.06,1.3a3.77,3.77 0,0 1,3.09 -1.49q3.25,0 3.29,3.69v6.81h-1.76v-6.82a2.43,2.43 0,0 0,-0.51 -1.65,2.06 2.06,0 0,0 -1.56,-0.53 2.49,2.49 0,0 0,-1.5 0.46,3 3,0 0,0 -1,1.2v7.34h-1.76V241.88Z" id="path_21"/><path fill="#2f2e41" d="M360.05,163.93h2v10.74a4.47,4.47 0,0 1,-1.31 3.41,4.88 4.88,0 0,1 -3.49,1.23 5,5 0,0 1,-3.52 -1.16,4.17 4.17,0 0,1 -1.26,-3.24h2a2.52,2.52 0,0 0,2.78 2.76,2.69 2.69,0 0,0 2,-0.78 3,3 0,0 0,0.78 -2.19Z" id="path_22"/><path fill="#2f2e41" d="M372.12,179.1a4.11,4.11 0,0 1,-0.27 -1.19,4.29 4.29,0 0,1 -3.21,1.4 4,4 0,0 1,-2.73 -0.95,3 3,0 0,1 -1.07,-2.39 3.19,3.19 0,0 1,1.34 -2.73,6.31 6.31,0 0,1 3.77,-1h1.87v-0.88a2.17,2.17 0,0 0,-0.6 -1.61,2.43 2.43,0 0,0 -1.78,-0.6 2.78,2.78 0,0 0,-1.73 0.52A1.53,1.53 0,0 0,367 171h-1.94a2.65,2.65 0,0 1,0.6 -1.63,4.1 4.1,0 0,1 1.62,-1.25 5.6,5.6 0,0 1,2.26 -0.45,4.43 4.43,0 0,1 3.05,1 3.5,3.5 0,0 1,1.15 2.68v5.19a6.21,6.21 0,0 0,0.4 2.47v0.17ZM368.93,177.63a3.45,3.45 0,0 0,1.72 -0.47,2.8 2.8,0 0,0 1.17,-1.22v-2.31h-1.51q-3.54,0 -3.54,2.07a1.76,1.76 0,0 0,0.6 1.42A2.34,2.34 0,0 0,368.93 177.63Z" id="path_23"/><path fill="#2f2e41" d="M378.6,167.82l0.06,1.42a4.12,4.12 0,0 1,3.38 -1.62q3.57,0 3.6,4v7.45h-1.93v-7.46a2.57,2.57 0,0 0,-0.55 -1.8,2.26 2.26,0 0,0 -1.71,-0.59 2.79,2.79 0,0 0,-1.64 0.5,3.36 3.36,0 0,0 -1.11,1.31v8h-1.93V167.82Z" id="path_24"/><path fill="#2f2e41" d="M395.51,178a4.07,4.07 0,0 1,-3.3 1.33,3.5 3.5,0 0,1 -2.75,-1.05 4.49,4.49 0,0 1,-0.95 -3.1v-7.34h1.93v7.29c0,1.71 0.69,2.56 2.08,2.56a2.9,2.9 0,0 0,2.94 -1.64v-8.21h1.93V179.1h-1.84Z" id="path_25"/><path fill="#2f2e41" d="M407.28,179.1a3.74,3.74 0,0 1,-0.28 -1.19,4.28 4.28,0 0,1 -3.2,1.4 4,4 0,0 1,-2.74 -0.95A3,3 0,0 1,400 176a3.19,3.19 0,0 1,1.34 -2.73,6.31 6.31,0 0,1 3.77,-1L407,172.27v-0.88a2.17,2.17 0,0 0,-0.6 -1.61,2.43 2.43,0 0,0 -1.78,-0.6 2.78,2.78 0,0 0,-1.73 0.52,1.53 1.53,0 0,0 -0.7,1.26h-1.94a2.65,2.65 0,0 1,0.6 -1.63,4.07 4.07,0 0,1 1.63,-1.25 5.51,5.51 0,0 1,2.25 -0.45,4.48 4.48,0 0,1 3.06,1 3.53,3.53 0,0 1,1.14 2.68v5.19a6.21,6.21 0,0 0,0.4 2.47v0.17ZM404.08,177.63a3.45,3.45 0,0 0,1.72 -0.47,2.8 2.8,0 0,0 1.17,-1.22v-2.31h-1.51q-3.54,0 -3.54,2.07a1.76,1.76 0,0 0,0.6 1.42A2.34,2.34 0,0 0,404.08 177.63Z" id="path_26"/><path fill="#2f2e41" d="M417.37,169.55a6.79,6.79 0,0 0,-0.94 -0.07,2.54 2.54,0 0,0 -2.58,1.62v8h-1.93V167.82h1.88l0,1.31a3,3 0,0 1,2.69 -1.51,1.92 1.92,0 0,1 0.85,0.14Z" id="path_27"/><path fill="#2f2e41" d="M423,176.28l2.63,-8.46h2.06l-4.53,13c-0.7,1.88 -1.82,2.81 -3.35,2.81l-0.36,0 -0.72,-0.13v-1.57l0.52,0.05a2.62,2.62 0,0 0,1.53 -0.4,2.92 2.92,0 0,0 0.9,-1.45l0.43,-1.15 -4,-11.15h2.11Z" id="path_28"/><path fill="#2f2e41" d="M444.46,179.1h-9.94v-1.39l5.25,-5.83a12.63,12.63 0,0 0,1.61 -2.15,3.7 3.7,0 0,0 0.44,-1.72 2.73,2.73 0,0 0,-0.72 -1.95,2.54 2.54,0 0,0 -1.91,-0.76 3,3 0,0 0,-2.24 0.82,3.14 3.14,0 0,0 -0.8,2.28h-1.93a4.47,4.47 0,0 1,1.35 -3.39,5 5,0 0,1 3.62,-1.29 4.79,4.79 0,0 1,3.34 1.11,3.78 3.78,0 0,1 1.23,2.95c0,1.5 -0.95,3.27 -2.86,5.34l-4.06,4.41h7.62Z" id="path_29"/><path fill="#2f2e41" d="M456,172.63a8.81,8.81 0,0 1,-1.16 5,4.8 4.8,0 0,1 -7.21,0 8.39,8.39 0,0 1,-1.21 -4.81v-2.58a8.56,8.56 0,0 1,1.16 -5,4.89 4.89,0 0,1 7.23,-0.05 8.39,8.39 0,0 1,1.19 4.84ZM454.09,170a7.06,7.06 0,0 0,-0.69 -3.57,2.38 2.38,0 0,0 -2.18,-1.12 2.35,2.35 0,0 0,-2.16 1.12,6.86 6.86,0 0,0 -0.69,3.43v3.08a7.13,7.13 0,0 0,0.71 3.63,2.37 2.37,0 0,0 2.16,1.17 2.32,2.32 0,0 0,2.12 -1.1,6.83 6.83,0 0,0 0.73,-3.48Z" id="path_30"/><path fill="#2f2e41" d="M468.43,179.1h-9.94v-1.39l5.25,-5.83a12.63,12.63 0,0 0,1.61 -2.15,3.7 3.7,0 0,0 0.44,-1.72 2.73,2.73 0,0 0,-0.72 -1.95,2.54 2.54,0 0,0 -1.92,-0.76 3,3 0,0 0,-2.23 0.82,3.14 3.14,0 0,0 -0.8,2.28h-1.93a4.47,4.47 0,0 1,1.35 -3.39,5 5,0 0,1 3.61,-1.29 4.82,4.82 0,0 1,3.35 1.11,3.78 3.78,0 0,1 1.23,2.95c0,1.5 -1,3.27 -2.86,5.34l-4.06,4.41h7.62Z" id="path_31"/><path fill="#2f2e41" d="M480.41,179.1h-9.94v-1.39l5.25,-5.83a12.11,12.11 0,0 0,1.61 -2.15,3.59 3.59,0 0,0 0.45,-1.72 2.73,2.73 0,0 0,-0.72 -1.95,2.54 2.54,0 0,0 -1.92,-0.76 3,3 0,0 0,-2.24 0.82,3.13 3.13,0 0,0 -0.79,2.28h-1.93a4.47,4.47 0,0 1,1.35 -3.39,5 5,0 0,1 3.61,-1.29 4.79,4.79 0,0 1,3.34 1.11,3.78 3.78,0 0,1 1.23,2.95c0,1.5 -0.95,3.27 -2.85,5.34l-4.07,4.41h7.62Z" id="path_32"/><path fill="#2f2e41" d="M287.35,79.09A11,11 0,0 1,283 77a4.06,4.06 0,0 1,-1.38 -3.12,4.27 4.27,0 0,1 1.69,-3.48A6.65,6.65 0,0 1,287.63 69a7.34,7.34 0,0 1,3.27 0.71,5.4 5.4,0 0,1 2.23,2 5.05,5.05 0,0 1,0.79 2.73h-2.36a3.28,3.28 0,0 0,-1 -2.55,4.18 4.18,0 0,0 -2.9,-0.93 4.28,4.28 0,0 0,-2.71 0.77,2.54 2.54,0 0,0 -1,2.12 2.29,2.29 0,0 0,0.92 1.85A9.18,9.18 0,0 0,288 77a14.53,14.53 0,0 1,3.48 1.37,5.46 5.46,0 0,1 1.86,1.76 4.53,4.53 0,0 1,0.6 2.36A4.18,4.18 0,0 1,292.27 86a7.2,7.2 0,0 1,-4.52 1.3,8.34 8.34,0 0,1 -3.42,-0.7 5.8,5.8 0,0 1,-2.46 -1.93,4.72 4.72,0 0,1 -0.86,-2.78h2.36a3.1,3.1 0,0 0,1.19 2.56,5.06 5.06,0 0,0 3.19,0.93 4.59,4.59 0,0 0,2.85 -0.76,2.45 2.45,0 0,0 1,-2.06 2.42,2.42 0,0 0,-0.91 -2A10.59,10.59 0,0 0,287.35 79.09Z" id="path_33"/><path fill="#2f2e41" d="M307.79,80.56a7.91,7.91 0,0 1,-1.38 4.86,4.41 4.41,0 0,1 -3.75,1.85 4.86,4.86 0,0 1,-3.79 -1.53v6.38h-2.26L296.61,73.79h2.07l0.11,1.47a4.66,4.66 0,0 1,3.84 -1.71,4.52 4.52,0 0,1 3.77,1.79 8,8 0,0 1,1.39 5ZM305.53,80.3a5.85,5.85 0,0 0,-1 -3.54A3.07,3.07 0,0 0,302 75.47a3.32,3.32 0,0 0,-3.08 1.82v6.32A3.33,3.33 0,0 0,302 85.42a3.07,3.07 0,0 0,2.59 -1.29A6.36,6.36 0,0 0,305.53 80.3Z" id="path_34"/><path fill="#2f2e41" d="M316.16,87.27a5.76,5.76 0,0 1,-4.38 -1.77,6.51 6.51,0 0,1 -1.69,-4.72v-0.42a8,8 0,0 1,0.75 -3.52A5.86,5.86 0,0 1,313 74.42a5.29,5.29 0,0 1,2.93 -0.87,4.94 4.94,0 0,1 4,1.7 7.37,7.37 0,0 1,1.43 4.87v0.94h-9a4.74,4.74 0,0 0,1.15 3.16,3.59 3.59,0 0,0 2.78,1.2 4,4 0,0 0,2 -0.48,5.14 5.14,0 0,0 1.46,-1.3l1.38,1.08A5.56,5.56 0,0 1,316.16 87.27ZM315.88,75.41a3,3 0,0 0,-2.3 1,4.83 4.83,0 0,0 -1.15,2.8h6.63L319.06,79a4.41,4.41 0,0 0,-0.93 -2.68A2.86,2.86 0,0 0,315.88 75.41Z" id="path_35"/><path fill="#2f2e41" d="M329.25,85.42a3.22,3.22 0,0 0,2.11 -0.73,2.58 2.58,0 0,0 1,-1.83h2.14a4.1,4.1 0,0 1,-0.78 2.16,5.24 5.24,0 0,1 -1.93,1.64 5.54,5.54 0,0 1,-2.55 0.61,5.46 5.46,0 0,1 -4.3,-1.8 7.16,7.16 0,0 1,-1.6 -4.94v-0.38a8,8 0,0 1,0.71 -3.44,5.33 5.33,0 0,1 2,-2.33 5.73,5.73 0,0 1,3.14 -0.83,5.32 5.32,0 0,1 3.7,1.33 4.79,4.79 0,0 1,1.57 3.46h-2.14a3.13,3.13 0,0 0,-1 -2.11,3 3,0 0,0 -2.15,-0.82 3.17,3.17 0,0 0,-2.68 1.24,5.84 5.84,0 0,0 -0.95,3.59v0.43a5.69,5.69 0,0 0,0.95 3.52A3.17,3.17 0,0 0,329.25 85.42Z" id="path_36"/><path fill="#2f2e41" d="M337.06,70.28a1.36,1.36 0,0 1,0.34 -0.93,1.51 1.51,0 0,1 2,0 1.32,1.32 0,0 1,0.34 0.93,1.29 1.29,0 0,1 -0.34,0.92 1.57,1.57 0,0 1,-2 0A1.34,1.34 0,0 1,337.06 70.28ZM339.51,87h-2.26V73.79h2.26Z" id="path_37"/><path fill="#2f2e41" d="M343.89,87L343.89,75.54L341.8,75.54L341.8,73.79h2.09L343.89,72.67a4.57,4.57 0,0 1,1.27 -3.45A4.87,4.87 0,0 1,348.74 68a10.76,10.76 0,0 1,3.46 0.75l-0.38,1.9a8,8 0,0 0,-2.91 -0.61,2.84 2.84,0 0,0 -2.1,0.66 2.68,2.68 0,0 0,-0.64 2v1.15h2.7v1.75h-2.7L346.17,87ZM353.32,87h-2.27L351.05,73.79h2.27Z" id="path_38"/><path fill="#2f2e41" d="M362.32,85.42a3.24,3.24 0,0 0,2.11 -0.73,2.54 2.54,0 0,0 1,-1.83h2.15a4.2,4.2 0,0 1,-0.79 2.16,5.13 5.13,0 0,1 -1.92,1.64 5.57,5.57 0,0 1,-2.55 0.61,5.44 5.44,0 0,1 -4.3,-1.8 7.16,7.16 0,0 1,-1.6 -4.94v-0.38a8,8 0,0 1,0.71 -3.44,5.38 5.38,0 0,1 2,-2.33 5.77,5.77 0,0 1,3.14 -0.83,5.29 5.29,0 0,1 3.7,1.33 4.76,4.76 0,0 1,1.58 3.46h-2.15a3.08,3.08 0,0 0,-1 -2.11,3 3,0 0,0 -2.16,-0.82 3.15,3.15 0,0 0,-2.67 1.24,5.84 5.84,0 0,0 -0.95,3.59v0.43a5.76,5.76 0,0 0,0.94 3.52A3.2,3.2 0,0 0,362.32 85.42Z" id="path_39"/><path fill="#2f2e41" d="M375.77,80.3a7.72,7.72 0,0 1,1.45 -4.9A4.54,4.54 0,0 1,381 73.55a4.59,4.59 0,0 1,3.68 1.59v-6.9h2.26L386.94,87h-2.08l-0.11,-1.42A4.59,4.59 0,0 1,381 87.27a4.54,4.54 0,0 1,-3.75 -1.88,7.9 7.9,0 0,1 -1.45,-4.92ZM378.04,80.56a5.86,5.86 0,0 0,0.93 3.52,3 3,0 0,0 2.56,1.27 3.3,3.3 0,0 0,3.15 -1.93L384.68,77.34a3.33,3.33 0,0 0,-3.12 -1.87A3,3 0,0 0,379 76.75,6.49 6.49,0 0,0 378,80.56Z" id="path_40"/><path fill="#2f2e41" d="M398.62,87a4.81,4.81 0,0 1,-0.31 -1.4,5 5,0 0,1 -3.77,1.64 4.64,4.64 0,0 1,-3.21 -1.11,3.55 3.55,0 0,1 -1.26,-2.8 3.74,3.74 0,0 1,1.58 -3.21A7.33,7.33 0,0 1,396.07 79h2.2L398.27,78a2.56,2.56 0,0 0,-0.71 -1.89,2.84 2.84,0 0,0 -2.09,-0.7 3.26,3.26 0,0 0,-2 0.61,1.8 1.8,0 0,0 -0.82,1.48h-2.28a3.1,3.1 0,0 1,0.71 -1.91,4.72 4.72,0 0,1 1.9,-1.47 6.6,6.6 0,0 1,2.65 -0.53,5.26 5.26,0 0,1 3.59,1.14 4.12,4.12 0,0 1,1.34 3.15v6.09a7.43,7.43 0,0 0,0.47 2.9L401.03,87ZM394.87,85.27a4,4 0,0 0,2 -0.55,3.33 3.33,0 0,0 1.38,-1.43L398.25,80.6L396.5,80.6c-2.78,0 -4.16,0.82 -4.16,2.44a2,2 0,0 0,0.71 1.66A2.72,2.72 0,0 0,394.87 85.3Z" id="path_41"/><path fill="#2f2e41" d="M407.15,70.59v3.2h2.47v1.75h-2.47v8.22a1.82,1.82 0,0 0,0.33 1.19,1.39 1.39,0 0,0 1.13,0.4 5.26,5.26 0,0 0,1.07 -0.15V87a6.61,6.61 0,0 1,-1.73 0.24,2.8 2.8,0 0,1 -2.29,-0.92 4,4 0,0 1,-0.77 -2.6V75.54h-2.41V73.79h2.41v-3.2Z" id="path_42"/><path fill="#2f2e41" d="M417.76,87.27a5.76,5.76 0,0 1,-4.38 -1.77,6.51 6.51,0 0,1 -1.69,-4.72v-0.42a8,8 0,0 1,0.75 -3.52,5.86 5.86,0 0,1 2.11,-2.42 5.29,5.29 0,0 1,2.93 -0.87,4.94 4.94,0 0,1 4,1.7 7.37,7.37 0,0 1,1.43 4.87v0.94h-9a4.74,4.74 0,0 0,1.15 3.16,3.59 3.59,0 0,0 2.78,1.2 4,4 0,0 0,2 -0.48,5.14 5.14,0 0,0 1.46,-1.3l1.38,1.08A5.56,5.56 0,0 1,417.76 87.27ZM417.48,75.41a3,3 0,0 0,-2.3 1A4.83,4.83 0,0 0,414 79.2h6.63L420.63,79a4.41,4.41 0,0 0,-0.93 -2.68A2.86,2.86 0,0 0,417.48 75.41Z" id="path_43"/><path fill="#2f2e41" d="M596.43,81.41l0.35,2.35 0.5,-2.12 3.52,-12.42h2l3.44,12.42 0.49,2.16 0.38,-2.4 2.76,-12.18h2.37L607.9,87h-2.14l-3.67,-13 -0.29,-1.36 -0.28,1.36 -3.8,13h-2.14l-4.31,-17.81h2.35Z" id="path_44"/><path fill="#2f2e41" d="M616.73,75.39a4.81,4.81 0,0 1,3.91 -1.84c2.8,0 4.21,1.57 4.24,4.73V87h-2.27V78.27a3,3 0,0 0,-0.65 -2.12,2.66 2.66,0 0,0 -2,-0.68 3.26,3.26 0,0 0,-1.93 0.58,4 4,0 0,0 -1.3,1.55V87h-2.26V68.24h2.26Z" id="path_45"/><path fill="#2f2e41" d="M627.67,80.29a7.79,7.79 0,0 1,0.76 -3.5,5.67 5.67,0 0,1 2.13,-2.4 5.82,5.82 0,0 1,3.11 -0.84,5.59 5.59,0 0,1 4.38,1.87 7.23,7.23 0,0 1,1.67 5v0.16A7.91,7.91 0,0 1,639 84a5.69,5.69 0,0 1,-2.12 2.4,5.86 5.86,0 0,1 -3.16,0.85 5.54,5.54 0,0 1,-4.36 -1.87,7.13 7.13,0 0,1 -1.67,-5ZM629.94,80.56a5.67,5.67 0,0 0,1 3.53,3.47 3.47,0 0,0 5.48,0 6.16,6.16 0,0 0,1 -3.78,5.65 5.65,0 0,0 -1,-3.53 3.28,3.28 0,0 0,-2.75 -1.35,3.24 3.24,0 0,0 -2.7,1.33A6.12,6.12 0,0 0,629.94 80.56Z" id="path_46"/><path fill="#2f2e41" d="M645,87h-2.26V68.24H645Z" id="path_47"/><path fill="#2f2e41" d="M654.13,87.27a5.76,5.76 0,0 1,-4.38 -1.77,6.51 6.51,0 0,1 -1.69,-4.72v-0.42a8,8 0,0 1,0.75 -3.52,5.86 5.86,0 0,1 2.11,-2.42 5.29,5.29 0,0 1,2.93 -0.87,4.93 4.93,0 0,1 4,1.7 7.37,7.37 0,0 1,1.43 4.87v0.94h-9a4.74,4.74 0,0 0,1.15 3.16,3.59 3.59,0 0,0 2.78,1.2 4,4 0,0 0,2 -0.48,5.14 5.14,0 0,0 1.46,-1.3l1.38,1.08A5.56,5.56 0,0 1,654.13 87.27ZM653.85,75.41a3,3 0,0 0,-2.3 1,4.83 4.83,0 0,0 -1.15,2.8L657,79.21L657,79a4.41,4.41 0,0 0,-0.93 -2.68A2.86,2.86 0,0 0,653.85 75.41Z" id="path_48"/><path fill="#2f2e41" d="M670.24,73.79l0.06,1.47a4.89,4.89 0,0 1,3.93 -1.71A3.79,3.79 0,0 1,678 75.67a5,5 0,0 1,1.72 -1.54,5.08 5.08,0 0,1 2.5,-0.58c2.9,0 4.38,1.53 4.43,4.61V87h-2.27V78.29a3.05,3.05 0,0 0,-0.64 -2.12,2.87 2.87,0 0,0 -2.18,-0.7 3,3 0,0 0,-2.09 0.75,3 3,0 0,0 -1,2V87h-2.28V78.35q0,-2.88 -2.82,-2.88a3,3 0,0 0,-3 1.89V87H668.1V73.79Z" id="path_49"/><path fill="#2f2e41" d="M689.47,80.29a7.79,7.79 0,0 1,0.77 -3.5,5.65 5.65,0 0,1 2.12,-2.4 5.83,5.83 0,0 1,3.12 -0.84,5.57 5.57,0 0,1 4.37,1.87 7.23,7.23 0,0 1,1.67 5v0.16a7.91,7.91 0,0 1,-0.74 3.46,5.63 5.63,0 0,1 -2.12,2.4 5.84,5.84 0,0 1,-3.16 0.85,5.56 5.56,0 0,1 -4.36,-1.87 7.18,7.18 0,0 1,-1.67 -5ZM691.75,80.56a5.67,5.67 0,0 0,1 3.53,3.46 3.46,0 0,0 5.47,0 6.16,6.16 0,0 0,1 -3.78,5.65 5.65,0 0,0 -1,-3.53 3.44,3.44 0,0 0,-5.45 0A6.18,6.18 0,0 0,691.75 80.56Z" id="path_50"/><path fill="#2f2e41" d="M706.5,73.79l0.07,1.66a4.83,4.83 0,0 1,4 -1.9c2.79,0 4.21,1.57 4.23,4.73V87h-2.26V78.27a3.05,3.05 0,0 0,-0.66 -2.12,2.64 2.64,0 0,0 -2,-0.68 3.26,3.26 0,0 0,-1.93 0.58,4 4,0 0,0 -1.3,1.55V87h-2.26V73.79Z" id="path_51"/><path fill="#2f2e41" d="M721.25,70.59v3.2h2.48v1.75h-2.48v8.22a1.82,1.82 0,0 0,0.33 1.19,1.39 1.39,0 0,0 1.13,0.4 5.44,5.44 0,0 0,1.08 -0.15V87a6.74,6.74 0,0 1,-1.74 0.24,2.81 2.81,0 0,1 -2.29,-0.92 4,4 0,0 1,-0.77 -2.6V75.54h-2.41V73.79H719v-3.2Z" id="path_52"/><path fill="#2f2e41" d="M728.63,75.39a4.81,4.81 0,0 1,3.92 -1.84c2.79,0 4.2,1.57 4.23,4.73V87h-2.26V78.27a3.05,3.05 0,0 0,-0.66 -2.12,2.64 2.64,0 0,0 -2,-0.68 3.26,3.26 0,0 0,-1.93 0.58,4 4,0 0,0 -1.3,1.55V87h-2.26V68.24h2.26Z" id="path_53"/><path fill="#2f2e41" d="M346.43,238.32 L351,249.64l4.54,-11.32h2.37v13.87H356v-5.4l0.17,-5.83 -4.55,11.23h-1.4L345.72,241l0.18,5.8v5.4h-1.83V238.32Z" id="path_54"/><path fill="#2f2e41" d="M360.35,246.94a6,6 0,0 1,0.6 -2.72,4.39 4.39,0 0,1 4.08,-2.53 4.37,4.37 0,0 1,3.41 1.46,5.63 5.63,0 0,1 1.3,3.88v0.12a6.22,6.22 0,0 1,-0.58 2.7,4.27 4.27,0 0,1 -1.65,1.86 4.49,4.49 0,0 1,-2.46 0.67,4.35 4.35,0 0,1 -3.4,-1.46 5.61,5.61 0,0 1,-1.3 -3.86ZM362.13,247.15a4.4,4.4 0,0 0,0.79 2.75,2.55 2.55,0 0,0 2.13,1 2.51,2.51 0,0 0,2.13 -1.05,4.81 4.81,0 0,0 0.79,-2.95 4.38,4.38 0,0 0,-0.8 -2.75,2.57 2.57,0 0,0 -2.14,-1.05 2.52,2.52 0,0 0,-2.1 1A4.73,4.73 0,0 0,362.13 247.15Z" id="path_55"/><path fill="#2f2e41" d="M373.61,241.88l0.06,1.3a3.75,3.75 0,0 1,3.08 -1.49q3.27,0 3.3,3.69v6.81h-1.76v-6.82a2.43,2.43 0,0 0,-0.51 -1.65,2.06 2.06,0 0,0 -1.56,-0.53 2.49,2.49 0,0 0,-1.5 0.46,3 3,0 0,0 -1,1.2v7.34H372V241.88Z" id="path_56"/><path fill="#2f2e41" d="M431.3,240h-4.45V252.4H425V240h-4.45v-1.49H431.3Z" id="path_57"/><path fill="#2f2e41" d="M438.54,251.38a3.72,3.72 0,0 1,-3 1.21,3.25 3.25,0 0,1 -2.51,-1 4.21,4.21 0,0 1,-0.87 -2.84v-6.7h1.76v6.65c0,1.57 0.64,2.35 1.91,2.35a2.64,2.64 0,0 0,2.69 -1.51V242.1h1.76v10.3h-1.68Z" id="path_58"/><path fill="#2f2e41" d="M447.21,252.59a4.53,4.53 0,0 1,-3.41 -1.37,5.1 5.1,0 0,1 -1.31,-3.68v-0.33a6.22,6.22 0,0 1,0.58 -2.74,4.56 4.56,0 0,1 1.64,-1.88 4.06,4.06 0,0 1,2.28 -0.68,3.85 3.85,0 0,1 3.12,1.32 5.7,5.7 0,0 1,1.12 3.79v0.73h-7a3.65,3.65 0,0 0,0.89 2.47,2.81 2.81,0 0,0 2.16,0.93 3,3 0,0 0,1.59 -0.38,3.86 3.86,0 0,0 1.13,-1l1.08,0.84A4.33,4.33 0,0 1,447.21 252.59ZM446.99,243.35a2.34,2.34 0,0 0,-1.79 0.78,3.76 3.76,0 0,0 -0.89,2.18h5.16v-0.14a3.39,3.39 0,0 0,-0.73 -2.08A2.21,2.21 0,0 0,447 243.35Z" id="path_59"/><path fill="#2f2e41" d="M502.25,247.82l0.26,1.82 0.39,-1.64 2.75,-9.68h1.54l2.67,9.68 0.39,1.67 0.29,-1.86 2.15,-9.49h1.84l-3.36,13.87H509.5l-2.85,-10.11 -0.22,-1.05 -0.22,1.05 -3,10.11h-1.67l-3.35,-13.87h1.83Z" id="path_60"/><path fill="#2f2e41" d="M520.26,252.38a4.48,4.48 0,0 1,-3.4 -1.38,5.09 5.09,0 0,1 -1.32,-3.68L515.54,247a6.2,6.2 0,0 1,0.59 -2.74,4.63 4.63,0 0,1 1.63,-1.89 4.2,4.2 0,0 1,2.29 -0.68,3.83 3.83,0 0,1 3.12,1.33 5.73,5.73 0,0 1,1.11 3.79v0.73h-7a3.7,3.7 0,0 0,0.89 2.46,2.79 2.79,0 0,0 2.17,0.94 3.11,3.11 0,0 0,1.58 -0.38,4 4,0 0,0 1.13,-1l1.08,0.84A4.34,4.34 0,0 1,520.26 252.38ZM520.05,243.14a2.33,2.33 0,0 0,-1.79 0.78,3.67 3.67,0 0,0 -0.9,2.17h5.16L522.52,246a3.34,3.34 0,0 0,-0.72 -2.08A2.22,2.22 0,0 0,520.05 243.14Z" id="path_61"/><path fill="#2f2e41" d="M525.89,247a6,6 0,0 1,1.13 -3.81,3.54 3.54,0 0,1 2.94,-1.45 3.6,3.6 0,0 1,2.87 1.24v-5.37h1.76v14.63L533,252.24l-0.09,-1.11a3.56,3.56 0,0 1,-2.94 1.3,3.52 3.52,0 0,1 -2.92,-1.47 6.12,6.12 0,0 1,-1.13 -3.83ZM527.66,247.2a4.57,4.57 0,0 0,0.72 2.74,2.34 2.34,0 0,0 2,1 2.58,2.58 0,0 0,2.45 -1.5v-4.74a2.59,2.59 0,0 0,-2.43 -1.45,2.33 2.33,0 0,0 -2,1A5,5 0,0 0,527.66 247.15Z" id="path_62"/><path fill="#2f2e41" d="M586.75,239.82h-4.46v12.37h-1.82V239.82H576v-1.5h10.72Z" id="path_63"/><path fill="#2f2e41" d="M590.29,243.13a3.75,3.75 0,0 1,3.05 -1.44q3.27,0 3.3,3.69v6.81h-1.77v-6.82a2.38,2.38 0,0 0,-0.5 -1.65,2.09 2.09,0 0,0 -1.56,-0.53 2.52,2.52 0,0 0,-1.51 0.46,3 3,0 0,0 -1,1.2v7.34h-1.76V237.56h1.76Z" id="path_64"/><path fill="#2f2e41" d="M605.64,251.17a3.75,3.75 0,0 1,-3 1.21,3.19 3.19,0 0,1 -2.51,-1 4.08,4.08 0,0 1,-0.87 -2.83v-6.71H601v6.66c0,1.56 0.63,2.34 1.9,2.34a2.65,2.65 0,0 0,2.69 -1.5v-7.5h1.76v10.31h-1.68Z" id="path_65"/><path fill="#2f2e41" d="M663.18,246.49h-5.81v6.13h-1.83V238.75h8.59v1.5h-6.76V245h5.81Z" id="path_66"/><path fill="#2f2e41" d="M670.78,243.89a5.94,5.94 0,0 0,-0.87 -0.06,2.31 2.31,0 0,0 -2.35,1.47v7.32h-1.77V242.31h1.72l0,1.19a2.72,2.72 0,0 1,2.45 -1.38,2 2,0 0,1 0.79,0.13Z" id="path_67"/><path fill="#2f2e41" d="M672.4,239.58a1,1 0,0 1,0.27 -0.73,1 1,0 0,1 0.77,-0.29 1,1 0,0 1,0.78 0.29,1 1,0 0,1 0.27,0.73 1,1 0,0 1,-0.27 0.71,1 1,0 0,1 -0.78,0.29 1,1 0,0 1,-0.77 -0.29A1,1 0,0 1,672.4 239.58ZM674.31,252.58h-1.76L672.55,242.31h1.76Z" id="path_68"/><path fill="#2f2e41" d="M736.45,246.44a8.49,8.49 0,0 1,-3.42 -1.67,3.14 3.14,0 0,1 -1.08,-2.43 3.37,3.37 0,0 1,1.31 -2.71,5.25 5.25,0 0,1 3.41,-1.07 5.69,5.69 0,0 1,2.55 0.55,4.23 4.23,0 0,1 1.73,1.53 3.85,3.85 0,0 1,0.61 2.12h-1.83a2.54,2.54 0,0 0,-0.8 -2,4 4,0 0,0 -4.37,-0.13 2,2 0,0 0,-0.76 1.66,1.78 1.78,0 0,0 0.72,1.43 7.21,7.21 0,0 0,2.45 1.08,11.18 11.18,0 0,1 2.7,1.07 4.07,4.07 0,0 1,1.45 1.36,3.57 3.57,0 0,1 0.47,1.84 3.24,3.24 0,0 1,-1.31 2.7,5.6 5.6,0 0,1 -3.52,1 6.56,6.56 0,0 1,-2.66 -0.55,4.55 4.55,0 0,1 -1.91,-1.5 3.66,3.66 0,0 1,-0.67 -2.16h1.83a2.37,2.37 0,0 0,0.93 2,3.89 3.89,0 0,0 2.48,0.73 3.54,3.54 0,0 0,2.22 -0.59,1.9 1.9,0 0,0 0.77,-1.61 1.86,1.86 0,0 0,-0.71 -1.57A8,8 0,0 0,736.45 246.44Z" id="path_69"/><path fill="#2f2e41" d="M750,252.62a4.08,4.08 0,0 1,-0.25 -1.09,3.93 3.93,0 0,1 -2.93,1.28 3.65,3.65 0,0 1,-2.5 -0.86,2.81 2.81,0 0,1 -1,-2.19 2.91,2.91 0,0 1,1.23 -2.5,5.77 5.77,0 0,1 3.44,-0.89h1.71v-0.81a2,2 0,0 0,-0.55 -1.47,2.2 2.2,0 0,0 -1.63,-0.55A2.56,2.56 0,0 0,746 244a1.41,1.41 0,0 0,-0.64 1.15h-1.77a2.45,2.45 0,0 1,0.55 -1.49,3.76 3.76,0 0,1 1.49,-1.14 5,5 0,0 1,2.06 -0.42,4.08 4.08,0 0,1 2.79,0.89 3.25,3.25 0,0 1,1 2.45v4.75a5.78,5.78 0,0 0,0.36 2.25v0.16ZM747.08,251.27a3.16,3.16 0,0 0,1.57 -0.42,2.61 2.61,0 0,0 1.07,-1.12v-2.11h-1.38c-2.16,0 -3.23,0.63 -3.23,1.89a1.61,1.61 0,0 0,0.55 1.3A2.13,2.13 0,0 0,747.1 251.27Z" id="path_70"/><path fill="#2f2e41" d="M756.66,239.82v2.49h1.92v1.36h-1.92v6.4a1.36,1.36 0,0 0,0.26 0.93,1.06 1.06,0 0,0 0.87,0.31 4.71,4.71 0,0 0,0.84 -0.11v1.42a5.36,5.36 0,0 1,-1.35 0.19,2.18 2.18,0 0,1 -1.78,-0.72 3.05,3.05 0,0 1,-0.6 -2v-6.39H753v-1.36h1.88v-2.49Z" id="path_71"/><path fill="#FCB61A" d="M281.22,313.1h-1.78V301.36l-3.55,1.3v-1.6l5.05,-1.89h0.28Z" id="path_72"/><path fill="#FCB61A" d="M282.64,350.39a3.17,3.17 0,0 1,-0.55 1.84,3.67 3.67,0 0,1 -1.48,1.27 4,4 0,0 1,1.72 1.36,3.46 3.46,0 0,1 0.63,2 3.62,3.62 0,0 1,-1.21 2.87,4.68 4.68,0 0,1 -3.2,1.06 4.6,4.6 0,0 1,-3.2 -1.07,3.65 3.65,0 0,1 -1.21,-2.86 3.55,3.55 0,0 1,0.62 -2,3.8 3.8,0 0,1 1.7,-1.37 3.61,3.61 0,0 1,-1.46 -1.27,3.3 3.3,0 0,1 -0.53,-1.83 3.57,3.57 0,0 1,1.12 -2.78,4.77 4.77,0 0,1 5.92,0A3.57,3.57 0,0 1,282.64 350.39ZM281.2,356.85a2.52,2.52 0,0 0,-0.74 -1.89,2.63 2.63,0 0,0 -4.55,1.89 2.45,2.45 0,0 0,0.7 1.86,2.66 2.66,0 0,0 1.94,0.68 2.71,2.71 0,0 0,1.95 -0.68A2.48,2.48 0,0 0,281.2 356.85ZM278.55,348a2.28,2.28 0,0 0,-1.68 0.65,2.66 2.66,0 0,0 0,3.45 2.25,2.25 0,0 0,1.69 0.66,2.22 2.22,0 0,0 1.69,-0.66 2.31,2.31 0,0 0,0.64 -1.71,2.35 2.35,0 0,0 -0.66,-1.72A2.26,2.26 0,0 0,278.55 348Z" id="path_73"/><path fill="#FCB61A" d="M274.12,408.17h-1.77V396.42l-3.55,1.31v-1.6l5,-1.9h0.28Z" id="path_74"/><path fill="#FCB61A" d="M280.09,401.21l0.71,-6.91h7.1v1.63h-5.61l-0.42,3.78a4.48,4.48 0,0 1,2.32 -0.6,3.86 3.86,0 0,1 3,1.25 4.93,4.93 0,0 1,1.11 3.39,4.68 4.68,0 0,1 -1.16,3.37 4.19,4.19 0,0 1,-3.23 1.24,4.38 4.38,0 0,1 -3,-1 4.05,4.05 0,0 1,-1.32 -2.82h1.66a2.78,2.78 0,0 0,0.85 1.79,2.61 2.61,0 0,0 1.81,0.61 2.38,2.38 0,0 0,1.93 -0.84,3.48 3.48,0 0,0 0.7,-2.31 3.2,3.2 0,0 0,-0.76 -2.24,2.56 2.56,0 0,0 -2,-0.84 3,3 0,0 0,-1.81 0.5l-0.47,0.39Z" id="path_75"/><path fill="#FCB61A" d="M277.42,455.7h-9.09v-1.27l4.8,-5.33a11.39,11.39 0,0 0,1.47 -2,3.28 3.28,0 0,0 0.41,-1.57 2.5,2.5 0,0 0,-0.66 -1.78,2.3 2.3,0 0,0 -1.75,-0.69 2.73,2.73 0,0 0,-2.05 0.75,2.86 2.86,0 0,0 -0.72,2.08h-1.77a4.08,4.08 0,0 1,1.24 -3.1,4.6 4.6,0 0,1 3.3,-1.18 4.36,4.36 0,0 1,3 1,3.44 3.44,0 0,1 1.13,2.7c0,1.36 -0.87,3 -2.61,4.87l-3.72,4h7Z" id="path_76"/><path fill="#FCB61A" d="M288.37,455.7h-9.09v-1.27l4.8,-5.33a11.39,11.39 0,0 0,1.47 -2,3.28 3.28,0 0,0 0.41,-1.57 2.5,2.5 0,0 0,-0.66 -1.78,2.3 2.3,0 0,0 -1.75,-0.69 2.7,2.7 0,0 0,-2 0.75,2.82 2.82,0 0,0 -0.73,2.08H279a4.1,4.1 0,0 1,1.23 -3.1,4.6 4.6,0 0,1 3.3,-1.18 4.38,4.38 0,0 1,3.06 1,3.44 3.44,0 0,1 1.12,2.7c0,1.36 -0.87,3 -2.61,4.87l-3.71,4h7Z" id="path_77"/><path fill="#FCB61A" d="M277.42,503.23h-9.09V502l4.8,-5.33a11.39,11.39 0,0 0,1.47 -2,3.25 3.25,0 0,0 0.41,-1.56 2.46,2.46 0,0 0,-0.66 -1.78,2.28 2.28,0 0,0 -1.75,-0.7 2.73,2.73 0,0 0,-2.05 0.75,2.87 2.87,0 0,0 -0.72,2.08h-1.77a4.08,4.08 0,0 1,1.24 -3.1,4.6 4.6,0 0,1 3.3,-1.18 4.36,4.36 0,0 1,3 1,3.44 3.44,0 0,1 1.13,2.7c0,1.36 -0.87,3 -2.61,4.87l-3.72,4h7Z" id="path_78"/><path fill="#FCB61A" d="M286,497.14a4.19,4.19 0,0 1,-1.31 1.05,3.6 3.6,0 0,1 -1.69,0.4 3.66,3.66 0,0 1,-2.09 -0.59,3.82 3.82,0 0,1 -1.37,-1.66 5.55,5.55 0,0 1,-0.49 -2.37,5.8 5.8,0 0,1 0.53,-2.5 3.92,3.92 0,0 1,1.5 -1.71,4.31 4.31,0 0,1 2.27,-0.59 3.88,3.88 0,0 1,3.24 1.54,6.74 6.74,0 0,1 1.19,4.2v0.51c0,2.7 -0.54,4.67 -1.6,5.91a6.16,6.16 0,0 1,-4.83 1.91L281,503.24v-1.5h0.38a4.18,4.18 0,0 0,4.62 -4.6ZM283.29,497.14a2.71,2.71 0,0 0,1.63 -0.55,3.12 3.12,0 0,0 1.09,-1.34v-0.71a4.83,4.83 0,0 0,-0.75 -2.81,2.22 2.22,0 0,0 -1.9,-1.09 2.27,2.27 0,0 0,-1.87 0.89,3.67 3.67,0 0,0 -0.7,2.35 3.82,3.82 0,0 0,0.68 2.34A2.15,2.15 0,0 0,283.32 497.14Z" id="path_79"/><path fill="#FCB61A" d="M274.69,543.81l0.71,-6.91h7.1v1.62h-5.61l-0.42,3.79a4.48,4.48 0,0 1,2.32 -0.6,3.82 3.82,0 0,1 3,1.25 4.9,4.9 0,0 1,1.11 3.38,4.7 4.7,0 0,1 -1.16,3.38 4.22,4.22 0,0 1,-3.23 1.23,4.36 4.36,0 0,1 -3,-1 4.05,4.05 0,0 1,-1.32 -2.82h1.66a2.79,2.79 0,0 0,0.85 1.8,2.65 2.65,0 0,0 1.81,0.6 2.37,2.37 0,0 0,1.93 -0.83,3.49 3.49,0 0,0 0.7,-2.32 3.19,3.19 0,0 0,-0.76 -2.23,2.56 2.56,0 0,0 -2,-0.84 2.88,2.88 0,0 0,-1.81 0.5l-0.47,0.38Z" id="path_80"/><path fill="#FCB61A" d="M361.31,313.1h-9.08v-1.26l4.8,-5.34a11.39,11.39 0,0 0,1.47 -2,3.3 3.3,0 0,0 0.4,-1.57 2.5,2.5 0,0 0,-0.65 -1.78,2.3 2.3,0 0,0 -1.76,-0.7 2.73,2.73 0,0 0,-2 0.75,2.84 2.84,0 0,0 -0.73,2.08H352a4.07,4.07 0,0 1,1.23 -3.09,4.55 4.55,0 0,1 3.3,-1.18 4.38,4.38 0,0 1,3.06 1,3.47 3.47,0 0,1 1.12,2.7q0,2 -2.61,4.88l-3.71,4h7Z" id="path_81"/><path fill="#FCB61A" d="M359.23,354.54a4.38,4.38 0,0 1,-1.32 1.06,3.65 3.65,0 0,1 -1.68,0.4 3.71,3.71 0,0 1,-2.09 -0.59,3.8 3.8,0 0,1 -1.38,-1.67 5.69,5.69 0,0 1,-0.49 -2.36,5.84 5.84,0 0,1 0.53,-2.51 3.84,3.84 0,0 1,1.5 -1.7,4.25 4.25,0 0,1 2.27,-0.59 3.88,3.88 0,0 1,3.24 1.53,6.74 6.74,0 0,1 1.19,4.2v0.51c0,2.7 -0.54,4.67 -1.6,5.91a6.12,6.12 0,0 1,-4.83 1.91h-0.34v-1.49h0.37a4.21,4.21 0,0 0,4.63 -4.61ZM356.51,354.54a2.75,2.75 0,0 0,1.64 -0.54,3.3 3.3,0 0,0 1.09,-1.35L359.24,352a4.85,4.85 0,0 0,-0.76 -2.82,2.25 2.25,0 0,0 -1.9,-1.09 2.27,2.27 0,0 0,-1.87 0.89,3.69 3.69,0 0,0 -0.7,2.35 3.78,3.78 0,0 0,0.68 2.34A2.15,2.15 0,0 0,356.51 354.54Z" id="path_82"/><path fill="#FCB61A" d="M352.28,408.17h-1.77V396.42L347,397.73v-1.6l5.05,-1.9h0.27Z" id="path_83"/><path fill="#FCB61A" d="M364.36,394.29v1.5H364a4.63,4.63 0,0 0,-3.28 1.21,5.12 5.12,0 0,0 -1.41,3.33 3.76,3.76 0,0 1,3 -1.26,3.59 3.59,0 0,1 2.89,1.28 5.58,5.58 0,0 1,-0.09 6.72,4 4,0 0,1 -3.12,1.29 4,4 0,0 1,-3.23 -1.53,6 6,0 0,1 -1.24,-3.94v-0.68a9.12,9.12 0,0 1,1.63 -5.85,6 6,0 0,1 4.86,-2.07ZM362,400.54a2.81,2.81 0,0 0,-1.66 0.54,2.86 2.86,0 0,0 -1.06,1.36v0.65a4.58,4.58 0,0 0,0.77 2.76,2.33 2.33,0 0,0 1.93,1 2.24,2.24 0,0 0,1.87 -0.88,4.2 4.2,0 0,0 0,-4.6A2.21,2.21 0,0 0,362 400.54Z" id="path_84"/><path fill="#FCB61A" d="M355.58,455.7h-9.09v-1.27l4.8,-5.33a11.39,11.39 0,0 0,1.47 -2,3.28 3.28,0 0,0 0.41,-1.57 2.5,2.5 0,0 0,-0.66 -1.78,2.3 2.3,0 0,0 -1.75,-0.69 2.7,2.7 0,0 0,-2 0.75,2.82 2.82,0 0,0 -0.73,2.08h-1.76a4.1,4.1 0,0 1,1.23 -3.1,4.6 4.6,0 0,1 3.3,-1.18 4.38,4.38 0,0 1,3.06 1,3.44 3.44,0 0,1 1.12,2.7c0,1.36 -0.87,3 -2.61,4.87l-3.71,4h7Z" id="path_85"/><path fill="#FCB61A" d="M360,447.91h1.32a2.91,2.91 0,0 0,2 -0.66,2.18 2.18,0 0,0 0.72,-1.72 2.15,2.15 0,0 0,-2.43 -2.44,2.57 2.57,0 0,0 -1.83,0.65 2.3,2.3 0,0 0,-0.68 1.73h-1.76a3.53,3.53 0,0 1,1.21 -2.74,4.94 4.94,0 0,1 6.13,-0.05 3.71,3.71 0,0 1,1.12 2.88,3.07 3.07,0 0,1 -0.59,1.76 3.56,3.56 0,0 1,-1.59 1.26,3.48 3.48,0 0,1 1.76,1.2 3.33,3.33 0,0 1,0.63 2.05,3.78 3.78,0 0,1 -1.22,3 4.56,4.56 0,0 1,-3.17 1.1,4.68 4.68,0 0,1 -3.18,-1.06 3.51,3.51 0,0 1,-1.22 -2.79H359a2.27,2.27 0,0 0,0.71 1.75,2.73 2.73,0 0,0 1.92,0.66 2.64,2.64 0,0 0,2 -0.67,2.56 2.56,0 0,0 0.68,-1.91 2.32,2.32 0,0 0,-0.75 -1.86,3.22 3.22,0 0,0 -2.14,-0.66H360Z" id="path_86"/><path fill="#FCB61A" d="M349.05,495.44h1.33a2.88,2.88 0,0 0,2 -0.66,2.17 2.17,0 0,0 0.71,-1.72 2.14,2.14 0,0 0,-2.42 -2.44,2.56 2.56,0 0,0 -1.83,0.65 2.3,2.3 0,0 0,-0.68 1.73h-1.76a3.55,3.55 0,0 1,1.2 -2.74,4.45 4.45,0 0,1 3.07,-1.09 4.34,4.34 0,0 1,3.07 1,3.74 3.74,0 0,1 1.12,2.89 3.07,3.07 0,0 1,-0.59 1.75,3.58 3.58,0 0,1 -1.59,1.27 3.36,3.36 0,0 1,1.76 1.2,3.28 3.28,0 0,1 0.63,2 3.8,3.8 0,0 1,-1.22 3,4.57 4.57,0 0,1 -3.17,1.09 4.66,4.66 0,0 1,-3.18 -1.06,3.48 3.48,0 0,1 -1.22,-2.79H348a2.3,2.3 0,0 0,0.71 1.76,2.77 2.77,0 0,0 1.92,0.65 2.68,2.68 0,0 0,1.95 -0.66,2.6 2.6,0 0,0 0.67,-1.92 2.34,2.34 0,0 0,-0.74 -1.86,3.22 3.22,0 0,0 -2.14,-0.66h-1.33Z" id="path_87"/><path fill="#FCB61A" d="M366.14,497.32a8,8 0,0 1,-1.06 4.6,3.75 3.75,0 0,1 -3.3,1.5 3.79,3.79 0,0 1,-3.29 -1.47,7.63 7.63,0 0,1 -1.1,-4.4L357.39,495.2a7.82,7.82 0,0 1,1.06 -4.54,4.45 4.45,0 0,1 6.6,-0.05 7.55,7.55 0,0 1,1.09 4.42ZM364.38,494.91a6.48,6.48 0,0 0,-0.63 -3.27,2.16 2.16,0 0,0 -2,-1 2.13,2.13 0,0 0,-2 1,6.29 6.29,0 0,0 -0.64,3.13v2.82a6.6,6.6 0,0 0,0.65 3.32,2.16 2.16,0 0,0 2,1.07 2.13,2.13 0,0 0,1.94 -1,6.34 6.34,0 0,0 0.66,-3.18Z" id="path_88"/><path fill="#FCB61A" d="M359.06,536.89v1.49h-0.32a4.67,4.67 0,0 0,-3.28 1.22,5.12 5.12,0 0,0 -1.41,3.32 3.79,3.79 0,0 1,3 -1.25,3.62 3.62,0 0,1 2.9,1.27 5.6,5.6 0,0 1,-0.09 6.73,4 4,0 0,1 -3.13,1.28 4,4 0,0 1,-3.23 -1.53,6.06 6.06,0 0,1 -1.24,-3.93v-0.68a9.12,9.12 0,0 1,1.64 -5.85,6 6,0 0,1 4.86,-2.07ZM356.75,543.13A3,3 0,0 0,354 545v0.65a4.51,4.51 0,0 0,0.77 2.76,2.3 2.3,0 0,0 1.92,1 2.25,2.25 0,0 0,1.87 -0.88,3.6 3.6,0 0,0 0.68,-2.3 3.65,3.65 0,0 0,-0.69 -2.31A2.23,2.23 0,0 0,356.75 543.13Z" id="path_89"/><path fill="#FCB61A" d="M429.74,360.63H428V348.89l-3.55,1.31v-1.6l5.05,-1.9h0.27Z" id="path_90"/><path fill="#FCB61A" d="M443.6,354.72a8,8 0,0 1,-1.06 4.6,3.75 3.75,0 0,1 -3.3,1.5 3.79,3.79 0,0 1,-3.29 -1.47,7.59 7.59,0 0,1 -1.1,-4.39v-2.35a7.86,7.86 0,0 1,1.06 -4.55,3.78 3.78,0 0,1 3.31,-1.48 3.83,3.83 0,0 1,3.3 1.43,7.66 7.66,0 0,1 1.08,4.42ZM441.84,352.31a6.43,6.43 0,0 0,-0.63 -3.26,2.17 2.17,0 0,0 -2,-1 2.13,2.13 0,0 0,-2 1,6.33 6.33,0 0,0 -0.64,3.14L436.57,355a6.66,6.66 0,0 0,0.65 3.32,2.18 2.18,0 0,0 2,1.07 2.15,2.15 0,0 0,1.94 -1,6.39 6.39,0 0,0 0.66,-3.18Z" id="path_91"/><path fill="#FCB61A" d="M429.74,408.17H428V396.42l-3.55,1.31v-1.6l5.05,-1.9h0.27Z" id="path_92"/><path fill="#FCB61A" d="M443.86,395.29l-5.74,12.88h-1.85L442,395.75h-7.5V394.3h9.37Z" id="path_93"/><path fill="#FCB61A" d="M433,455.7H424v-1.27l4.8,-5.33a11.39,11.39 0,0 0,1.47 -2,3.28 3.28,0 0,0 0.41,-1.57 2.5,2.5 0,0 0,-0.66 -1.78,2.3 2.3,0 0,0 -1.75,-0.69 2.7,2.7 0,0 0,-2 0.75,2.82 2.82,0 0,0 -0.73,2.08h-1.76a4.1,4.1 0,0 1,1.23 -3.1,4.6 4.6,0 0,1 3.3,-1.18 4.38,4.38 0,0 1,3.06 1,3.44 3.44,0 0,1 1.12,2.7c0,1.36 -0.87,3 -2.61,4.87l-3.71,4h7Z" id="path_94"/><path fill="#FCB61A" d="M442.34,451h1.93v1.44h-1.93v3.22h-1.77v-3.22h-6.31v-1l6.21,-9.61h1.87ZM436.26,451h4.31v-6.8l-0.21,0.38Z" id="path_95"/><path fill="#FCB61A" d="M426.52,495.44h1.32a2.88,2.88 0,0 0,2 -0.66,2.18 2.18,0 0,0 0.72,-1.72 2.15,2.15 0,0 0,-2.43 -2.44,2.56 2.56,0 0,0 -1.83,0.65 2.3,2.3 0,0 0,-0.68 1.73h-1.76a3.55,3.55 0,0 1,1.2 -2.74,4.45 4.45,0 0,1 3.07,-1.09 4.34,4.34 0,0 1,3.07 1,3.74 3.74,0 0,1 1.12,2.89 3.07,3.07 0,0 1,-0.59 1.75,3.58 3.58,0 0,1 -1.59,1.27 3.36,3.36 0,0 1,1.76 1.2,3.28 3.28,0 0,1 0.63,2 3.8,3.8 0,0 1,-1.22 3,4.57 4.57,0 0,1 -3.17,1.09 4.66,4.66 0,0 1,-3.18 -1.06,3.48 3.48,0 0,1 -1.22,-2.79h1.77a2.3,2.3 0,0 0,0.71 1.76,2.77 2.77,0 0,0 1.92,0.65 2.68,2.68 0,0 0,1.95 -0.66,2.6 2.6,0 0,0 0.67,-1.92 2.34,2.34 0,0 0,-0.74 -1.86,3.22 3.22,0 0,0 -2.14,-0.66h-1.32Z" id="path_96"/><path fill="#FCB61A" d="M440.7,503.23h-1.78V491.49l-3.55,1.3v-1.6l5.05,-1.89h0.28Z" id="path_97"/><path fill="#FCB61A" d="M438.66,537.89l-5.74,12.87h-1.85l5.73,-12.42h-7.51V536.9h9.37Z" id="path_98"/><path fill="#FCB61A" d="M513,308.44h1.92v1.44L513,309.88v3.22h-1.77v-3.22h-6.32v-1l6.21,-9.6L513,299.28ZM506.91,308.44h4.32v-6.8L511,302Z" id="path_99"/><path fill="#FCB61A" d="M507.05,360.63h-1.77V348.89l-3.55,1.31v-1.6l5,-1.9h0.27Z" id="path_100"/><path fill="#FCB61A" d="M518,360.63h-1.78V348.89l-3.55,1.31v-1.6l5.05,-1.9H518Z" id="path_101"/><path fill="#FCB61A" d="M507.05,408.17h-1.77V396.42l-3.55,1.31v-1.6l5,-1.9h0.27Z" id="path_102"/><path fill="#FCB61A" d="M520.62,397.92a3.27,3.27 0,0 1,-0.54 1.85A3.72,3.72 0,0 1,518.6 401a4,4 0,0 1,1.71 1.36,3.4 3.4,0 0,1 0.64,2 3.63,3.63 0,0 1,-1.22 2.87,5.32 5.32,0 0,1 -6.4,0 3.66,3.66 0,0 1,-1.2 -2.87,3.54 3.54,0 0,1 0.61,-2 3.86,3.86 0,0 1,1.7 -1.37,3.56 3.56,0 0,1 -1.45,-1.26 3.26,3.26 0,0 1,-0.54 -1.84,3.57 3.57,0 0,1 1.13,-2.78 4.77,4.77 0,0 1,5.92 0A3.57,3.57 0,0 1,520.62 397.92ZM519.19,404.38a2.56,2.56 0,0 0,-0.74 -1.89,2.62 2.62,0 0,0 -1.93,-0.73 2.47,2.47 0,0 0,-2.63 2.62,2.45 2.45,0 0,0 0.7,1.86 3.12,3.12 0,0 0,3.89 0A2.47,2.47 0,0 0,519.19 404.38ZM516.54,395.56a2.27,2.27 0,0 0,-1.68 0.64,2.67 2.67,0 0,0 0,3.46 2.52,2.52 0,0 0,3.38 0,2.63 2.63,0 0,0 0,-3.44A2.27,2.27 0,0 0,516.54 395.56Z" id="path_103"/><path fill="#FCB61A" d="M510.35,455.7h-9.09v-1.27l4.8,-5.33a11.39,11.39 0,0 0,1.47 -2,3.28 3.28,0 0,0 0.41,-1.57 2.5,2.5 0,0 0,-0.66 -1.78,2.3 2.3,0 0,0 -1.75,-0.69 2.7,2.7 0,0 0,-2 0.75,2.82 2.82,0 0,0 -0.73,2.08H501a4.1,4.1 0,0 1,1.23 -3.1,4.6 4.6,0 0,1 3.3,-1.18 4.38,4.38 0,0 1,3.06 1,3.44 3.44,0 0,1 1.12,2.7c0,1.36 -0.87,3 -2.61,4.87l-3.71,4h7Z" id="path_104"/><path fill="#FCB61A" d="M513,448.75l0.71,-6.92h7.1v1.63h-5.61l-0.41,3.78a4.44,4.44 0,0 1,2.31 -0.6,3.84 3.84,0 0,1 3,1.25 4.94,4.94 0,0 1,1.11 3.39,4.76 4.76,0 0,1 -1.15,3.38 4.24,4.24 0,0 1,-3.24 1.23,4.4 4.4,0 0,1 -3,-1 4.1,4.1 0,0 1,-1.32 -2.82h1.67a2.83,2.83 0,0 0,0.84 1.8,2.65 2.65,0 0,0 1.81,0.6 2.38,2.38 0,0 0,1.93 -0.84,3.48 3.48,0 0,0 0.7,-2.31 3.22,3.22 0,0 0,-0.76 -2.24,2.56 2.56,0 0,0 -2,-0.84 2.88,2.88 0,0 0,-1.81 0.51l-0.47,0.38Z" id="path_105"/><path fill="#FCB61A" d="M512.53,503.23h-1.77V491.49l-3.55,1.3v-1.6l5,-1.89h0.28Z" id="path_106"/><path fill="#FCB61A" d="M514,540.51a3.24,3.24 0,0 1,-0.54 1.85,3.78 3.78,0 0,1 -1.49,1.27 3.9,3.9 0,0 1,1.72 1.36,3.38 3.38,0 0,1 0.64,2 3.63,3.63 0,0 1,-1.22 2.87,5.34 5.34,0 0,1 -6.4,0 3.64,3.64 0,0 1,-1.2 -2.86,3.52 3.52,0 0,1 0.61,-2 3.86,3.86 0,0 1,1.7 -1.37,3.66 3.66,0 0,1 -1.45,-1.27 3.23,3.23 0,0 1,-0.54 -1.84,3.6 3.6,0 0,1 1.13,-2.78 4.79,4.79 0,0 1,5.91 0A3.57,3.57 0,0 1,514 540.51ZM512.52,547a2.56,2.56 0,0 0,-0.74 -1.89,2.62 2.62,0 0,0 -1.93,-0.74 2.49,2.49 0,0 0,-2.63 2.63,2.45 2.45,0 0,0 0.7,1.86 2.7,2.7 0,0 0,1.95 0.67,2.65 2.65,0 0,0 1.94,-0.68A2.45,2.45 0,0 0,512.52 547ZM509.87,538.17a2.28,2.28 0,0 0,-1.68 0.65,2.34 2.34,0 0,0 -0.65,1.74 2.31,2.31 0,0 0,0.64 1.71,2.49 2.49,0 0,0 3.38,0 2.6,2.6 0,0 0,0 -3.43A2.24,2.24 0,0 0,509.87 538.15Z" id="path_107"/><path fill="#FCB61A" d="M585.27,306.15l0.7,-6.91h7.1v1.62h-5.6l-0.42,3.78a4.47,4.47 0,0 1,2.31 -0.6,3.82 3.82,0 0,1 3,1.26 4.9,4.9 0,0 1,1.11 3.38,4.74 4.74,0 0,1 -1.15,3.38 4.23,4.23 0,0 1,-3.24 1.23,4.4 4.4,0 0,1 -3,-1 4.1,4.1 0,0 1,-1.32 -2.82h1.67a2.78,2.78 0,0 0,0.84 1.8,2.65 2.65,0 0,0 1.81,0.6A2.39,2.39 0,0 0,591 311a3.49,3.49 0,0 0,0.7 -2.32,3.22 3.22,0 0,0 -0.75,-2.23 2.6,2.6 0,0 0,-2 -0.84,2.88 2.88,0 0,0 -1.81,0.5l-0.47,0.38Z" id="path_108"/><path fill="#FCB61A" d="M584.67,360.63h-1.78V348.89l-3.55,1.31v-1.6l5,-1.9h0.28Z" id="path_109"/><path fill="#FCB61A" d="M598.91,360.63h-9.08v-1.26l4.8,-5.34a11.39,11.39 0,0 0,1.47 -2,3.3 3.3,0 0,0 0.4,-1.57 2.52,2.52 0,0 0,-0.65 -1.78,2.33 2.33,0 0,0 -1.76,-0.7 2.73,2.73 0,0 0,-2 0.75,2.88 2.88,0 0,0 -0.73,2.08h-1.76a4.1,4.1 0,0 1,1.23 -3.09,4.59 4.59,0 0,1 3.3,-1.18 4.43,4.43 0,0 1,3.06 1,3.47 3.47,0 0,1 1.12,2.7c0,1.37 -0.87,3 -2.61,4.88l-3.71,4h7Z" id="path_110"/><path fill="#FCB61A" d="M584.67,408.17h-1.78V396.42l-3.55,1.31v-1.6l5,-1.9h0.28Z" id="path_111"/><path fill="#FCB61A" d="M596.58,402.07a4.38,4.38 0,0 1,-1.32 1.06,3.65 3.65,0 0,1 -1.68,0.4 3.71,3.71 0,0 1,-2.09 -0.59,4 4,0 0,1 -1.38,-1.66 5.77,5.77 0,0 1,-0.48 -2.37,5.7 5.7,0 0,1 0.53,-2.51 3.84,3.84 0,0 1,1.5 -1.7,4.28 4.28,0 0,1 2.26,-0.59 3.86,3.86 0,0 1,3.24 1.54,6.63 6.63,0 0,1 1.19,4.19v0.52c0,2.7 -0.53,4.66 -1.6,5.91a6.19,6.19 0,0 1,-4.83 1.91h-0.34v-1.5L592,406.68a4.21,4.21 0,0 0,4.63 -4.61ZM593.86,402.07a2.73,2.73 0,0 0,1.64 -0.54,3.2 3.2,0 0,0 1.09,-1.34v-0.71a4.87,4.87 0,0 0,-0.75 -2.82,2.26 2.26,0 0,0 -1.91,-1.08 2.23,2.23 0,0 0,-1.86 0.89,3.59 3.59,0 0,0 -0.71,2.34 3.84,3.84 0,0 0,0.68 2.34A2.15,2.15 0,0 0,593.86 402.07Z" id="path_112"/><path fill="#FCB61A" d="M588,455.7h-9.09v-1.27l4.8,-5.33a11,11 0,0 0,1.48 -2,3.27 3.27,0 0,0 0.4,-1.57 2.5,2.5 0,0 0,-0.66 -1.78,2.29 2.29,0 0,0 -1.75,-0.69 2.7,2.7 0,0 0,-2 0.75,2.82 2.82,0 0,0 -0.73,2.08h-1.76a4.1,4.1 0,0 1,1.23 -3.1,4.6 4.6,0 0,1 3.3,-1.18 4.38,4.38 0,0 1,3.06 1,3.44 3.44,0 0,1 1.12,2.7c0,1.36 -0.87,3 -2.61,4.87l-3.71,4h7Z" id="path_113"/><path fill="#FCB61A" d="M596.74,441.82v1.5h-0.32a4.61,4.61 0,0 0,-3.28 1.22,5.07 5.07,0 0,0 -1.41,3.32 3.76,3.76 0,0 1,3 -1.26,3.59 3.59,0 0,1 2.89,1.28 5.6,5.6 0,0 1,-0.08 6.72,4 4,0 0,1 -3.13,1.29 4,4 0,0 1,-3.23 -1.53,6 6,0 0,1 -1.24,-3.94v-0.67a9.13,9.13 0,0 1,1.64 -5.86,6 6,0 0,1 4.86,-2.07ZM594.43,448.07a2.82,2.82 0,0 0,-1.67 0.54A2.86,2.86 0,0 0,591.7 450v0.65a4.56,4.56 0,0 0,0.77 2.76,2.33 2.33,0 0,0 1.93,1.05 2.24,2.24 0,0 0,1.87 -0.87,4.22 4.22,0 0,0 0,-4.61A2.2,2.2 0,0 0,594.43 448.07Z" id="path_114"/><path fill="#FCB61A" d="M593.8,503.23h-9.08V502l4.8,-5.33a11.39,11.39 0,0 0,1.47 -2,3.23 3.23,0 0,0 0.4,-1.56 2.5,2.5 0,0 0,-0.65 -1.78,2.3 2.3,0 0,0 -1.76,-0.7 2.73,2.73 0,0 0,-2 0.75,2.88 2.88,0 0,0 -0.73,2.08h-1.76a4.1,4.1 0,0 1,1.23 -3.1,4.63 4.63,0 0,1 3.3,-1.18 4.38,4.38 0,0 1,3.06 1,3.44 3.44,0 0,1 1.13,2.7c0,1.36 -0.87,3 -2.61,4.87l-3.72,4h7Z" id="path_115"/><path fill="#FCB61A" d="M591.72,544.67a4.2,4.2 0,0 1,-1.32 1.05,3.53 3.53,0 0,1 -1.68,0.4 3.64,3.64 0,0 1,-2.09 -0.59,3.72 3.72,0 0,1 -1.38,-1.66 5.69,5.69 0,0 1,-0.48 -2.36,5.81 5.81,0 0,1 0.52,-2.51 4,4 0,0 1,1.5 -1.7,4.25 4.25,0 0,1 2.27,-0.59 3.88,3.88 0,0 1,3.24 1.53,6.74 6.74,0 0,1 1.19,4.2L593.49,543q0,4 -1.6,5.91a6.16,6.16 0,0 1,-4.83 1.91h-0.34v-1.49h0.37a4.21,4.21 0,0 0,4.63 -4.61ZM589,544.67a2.7,2.7 0,0 0,1.64 -0.55,3.28 3.28,0 0,0 1.09,-1.34v-0.7a4.77,4.77 0,0 0,-0.76 -2.82,2.22 2.22,0 0,0 -1.9,-1.09 2.28,2.28 0,0 0,-1.87 0.89,3.69 3.69,0 0,0 -0.7,2.35 3.84,3.84 0,0 0,0.68 2.34A2.15,2.15 0,0 0,589 544.67Z" id="path_116"/><path fill="#FCB61A" d="M668.55,299.44v1.5h-0.33a4.62,4.62 0,0 0,-3.27 1.21,5.12 5.12,0 0,0 -1.41,3.33 3.76,3.76 0,0 1,3 -1.26,3.59 3.59,0 0,1 2.89,1.28 5.58,5.58 0,0 1,-0.09 6.72,4 4,0 0,1 -3.12,1.29A4,4 0,0 1,663 312a6,6 0,0 1,-1.24 -3.94v-0.68a9.12,9.12 0,0 1,1.63 -5.85,6 6,0 0,1 4.86,-2.07ZM666.23,305.69a2.81,2.81 0,0 0,-1.66 0.54,2.86 2.86,0 0,0 -1.06,1.36v0.65a4.58,4.58 0,0 0,0.77 2.76,2.33 2.33,0 0,0 1.93,1.05 2.24,2.24 0,0 0,1.87 -0.88,4.2 4.2,0 0,0 0,-4.6A2.21,2.21 0,0 0,666.23 305.69Z" id="path_117"/><path fill="#FCB61A" d="M661.93,360.85h-1.77V349.11l-3.55,1.3v-1.6l5,-1.89h0.27Z" id="path_118"/><path fill="#FCB61A" d="M669.66,353.06H671a2.86,2.86 0,0 0,2 -0.66,2.18 2.18,0 0,0 0.72,-1.72 2.15,2.15 0,0 0,-2.43 -2.44,2.53 2.53,0 0,0 -1.82,0.65 2.27,2.27 0,0 0,-0.69 1.73H667a3.53,3.53 0,0 1,1.21 -2.74,5 5,0 0,1 6.14,-0.05 3.74,3.74 0,0 1,1.11 2.88,3.07 3.07,0 0,1 -0.59,1.76 3.56,3.56 0,0 1,-1.59 1.26,3.55 3.55,0 0,1 1.77,1.2 3.39,3.39 0,0 1,0.62 2.05,3.78 3.78,0 0,1 -1.22,3 4.56,4.56 0,0 1,-3.17 1.1,4.68 4.68,0 0,1 -3.18,-1.06 3.51,3.51 0,0 1,-1.22 -2.79h1.77a2.27,2.27 0,0 0,0.71 1.75,2.73 2.73,0 0,0 1.92,0.66 2.64,2.64 0,0 0,2 -0.67,2.56 2.56,0 0,0 0.68,-1.91 2.32,2.32 0,0 0,-0.75 -1.86,3.22 3.22,0 0,0 -2.14,-0.66h-1.32Z" id="path_119"/><path fill="#FCB61A" d="M665.23,408.38h-9.09v-1.27l4.8,-5.33a11.55,11.55 0,0 0,1.48 -2,3.35 3.35,0 0,0 0.4,-1.56 2.46,2.46 0,0 0,-0.66 -1.78,2.28 2.28,0 0,0 -1.75,-0.7 2.7,2.7 0,0 0,-2 0.75,2.84 2.84,0 0,0 -0.73,2.08h-1.76a4.1,4.1 0,0 1,1.23 -3.1,4.6 4.6,0 0,1 3.3,-1.18 4.38,4.38 0,0 1,3.06 1,3.44 3.44,0 0,1 1.12,2.7c0,1.36 -0.87,3 -2.61,4.87l-3.71,4h7Z" id="path_120"/><path fill="#FCB61A" d="M675.79,402.47a8,8 0,0 1,-1.06 4.6,3.75 3.75,0 0,1 -3.3,1.5 3.79,3.79 0,0 1,-3.29 -1.47,7.63 7.63,0 0,1 -1.1,-4.4v-2.35a7.82,7.82 0,0 1,1.06 -4.54,3.78 3.78,0 0,1 3.31,-1.49 3.83,3.83 0,0 1,3.3 1.44,7.63 7.63,0 0,1 1.08,4.42ZM674,400.06a6.48,6.48 0,0 0,-0.63 -3.27,2.16 2.16,0 0,0 -2,-1 2.13,2.13 0,0 0,-2 1,6.29 6.29,0 0,0 -0.64,3.13v2.82a6.6,6.6 0,0 0,0.65 3.32,2.16 2.16,0 0,0 2,1.07 2.12,2.12 0,0 0,1.94 -1,6.34 6.34,0 0,0 0.66,-3.18Z" id="path_121"/><path fill="#FCB61A" d="M665.23,455.91h-9.09v-1.26l4.8,-5.34a11.56,11.56 0,0 0,1.48 -2,3.42 3.42,0 0,0 0.4,-1.57 2.48,2.48 0,0 0,-0.66 -1.78,2.28 2.28,0 0,0 -1.75,-0.7 2.7,2.7 0,0 0,-2 0.75,2.84 2.84,0 0,0 -0.73,2.08h-1.76a4.08,4.08 0,0 1,1.23 -3.09,4.55 4.55,0 0,1 3.3,-1.18 4.38,4.38 0,0 1,3.06 1,3.47 3.47,0 0,1 1.12,2.7q0,2 -2.61,4.88l-3.71,4h7Z" id="path_122"/><path fill="#FCB61A" d="M676.05,443l-5.74,12.87h-1.85l5.72,-12.42h-7.5v-1.44h9.37Z" id="path_123"/><path fill="#FCB61A" d="M664.54,495.65h1.33a2.93,2.93 0,0 0,2 -0.65,2.19 2.19,0 0,0 0.71,-1.73 2.15,2.15 0,0 0,-2.42 -2.44,2.52 2.52,0 0,0 -1.83,0.66 2.29,2.29 0,0 0,-0.68 1.73h-1.76a3.55,3.55 0,0 1,1.2 -2.74,4.4 4.4,0 0,1 3.07,-1.09 4.29,4.29 0,0 1,3.07 1,3.75 3.75,0 0,1 1.12,2.88 3,3 0,0 1,-0.59 1.75,3.49 3.49,0 0,1 -1.6,1.27 3.35,3.35 0,0 1,1.77 1.2,3.31 3.31,0 0,1 0.63,2.05 3.79,3.79 0,0 1,-1.22 3,4.58 4.58,0 0,1 -3.18,1.09 4.68,4.68 0,0 1,-3.17 -1.05,3.51 3.51,0 0,1 -1.23,-2.79h1.78a2.25,2.25 0,0 0,0.71 1.75,3.15 3.15,0 0,0 3.87,0 2.56,2.56 0,0 0,0.67 -1.91,2.31 2.31,0 0,0 -0.74,-1.86 3.22,3.22 0,0 0,-2.14 -0.67h-1.33Z" id="path_124"/><path fill="#FCB61A" d="M661.93,551h-1.77V539.23l-3.55,1.31v-1.6l5,-1.9h0.27Z" id="path_125"/><path fill="#FCB61A" d="M675.79,545.06a8,8 0,0 1,-1.06 4.6,3.73 3.73,0 0,1 -3.3,1.51 3.79,3.79 0,0 1,-3.29 -1.47,7.65 7.65,0 0,1 -1.1,-4.4V543a7.82,7.82 0,0 1,1.06 -4.54,3.78 3.78,0 0,1 3.31,-1.49 3.85,3.85 0,0 1,3.3 1.43,7.67 7.67,0 0,1 1.08,4.43ZM674,542.65a6.43,6.43 0,0 0,-0.63 -3.26,2.16 2.16,0 0,0 -2,-1 2.13,2.13 0,0 0,-2 1,6.29 6.29,0 0,0 -0.64,3.13v2.82a6.63,6.63 0,0 0,0.65 3.32,2.18 2.18,0 0,0 2,1.07 2.14,2.14 0,0 0,1.94 -1,6.34 6.34,0 0,0 0.66,-3.18Z" id="path_126"/><path fill="#FCB61A" d="M748.87,300.44l-5.74,12.88h-1.85L747,300.9H739.5v-1.45h9.37Z" id="path_127"/><path fill="#FCB61A" d="M739.59,360.85h-1.78V349.11l-3.55,1.3v-1.6l5,-1.89h0.28Z" id="path_128"/><path fill="#FCB61A" d="M752.19,356.19h1.92v1.44h-1.92v3.22h-1.78v-3.22L744.1,357.63v-1l6.21,-9.61h1.88ZM746.1,356.19h4.31v-6.8l-0.2,0.38Z" id="path_129"/><path fill="#FCB61A" d="M742.88,408.38H733.8v-1.27l4.8,-5.33a11.39,11.39 0,0 0,1.47 -2,3.23 3.23,0 0,0 0.4,-1.56 2.46,2.46 0,0 0,-0.66 -1.78,2.26 2.26,0 0,0 -1.75,-0.7 2.73,2.73 0,0 0,-2 0.75,2.84 2.84,0 0,0 -0.73,2.08h-1.76a4.1,4.1 0,0 1,1.23 -3.1,4.6 4.6,0 0,1 3.3,-1.18 4.38,4.38 0,0 1,3.06 1,3.44 3.44,0 0,1 1.12,2.7c0,1.36 -0.87,3 -2.61,4.87l-3.71,4h7Z" id="path_130"/><path fill="#FCB61A" d="M750.54,408.38h-1.77V396.64l-3.56,1.3v-1.6l5,-1.89h0.28Z" id="path_131"/><path fill="#FCB61A" d="M742.88,455.91H733.8v-1.26l4.8,-5.34a11.39,11.39 0,0 0,1.47 -2,3.3 3.3,0 0,0 0.4,-1.57 2.48,2.48 0,0 0,-0.66 -1.78,2.26 2.26,0 0,0 -1.75,-0.7 2.73,2.73 0,0 0,-2 0.75,2.84 2.84,0 0,0 -0.73,2.08h-1.76a4.08,4.08 0,0 1,1.23 -3.09,4.55 4.55,0 0,1 3.3,-1.18 4.38,4.38 0,0 1,3.06 1,3.47 3.47,0 0,1 1.12,2.7q0,2 -2.61,4.88l-3.71,4h7Z" id="path_132"/><path fill="#FCB61A" d="M753.16,445.66a3.25,3.25 0,0 1,-0.55 1.85,3.82 3.82,0 0,1 -1.48,1.27 4,4 0,0 1,1.72 1.36,3.44 3.44,0 0,1 0.63,2 3.62,3.62 0,0 1,-1.21 2.87,4.68 4.68,0 0,1 -3.2,1.06 4.6,4.6 0,0 1,-3.2 -1.07,3.62 3.62,0 0,1 -1.21,-2.86 3.53,3.53 0,0 1,0.62 -2,3.8 3.8,0 0,1 1.7,-1.37 3.62,3.62 0,0 1,-1.46 -1.27,3.23 3.23,0 0,1 -0.53,-1.84 3.6,3.6 0,0 1,1.12 -2.78,4.8 4.8,0 0,1 5.92,0A3.6,3.6 0,0 1,753.16 445.66ZM751.72,452.13a2.56,2.56 0,0 0,-0.74 -1.89,2.61 2.61,0 0,0 -1.93,-0.74 2.49,2.49 0,0 0,-2.63 2.63,2.49 2.49,0 0,0 0.7,1.86 2.7,2.7 0,0 0,2 0.67A2.64,2.64 0,0 0,751 454,2.45 2.45,0 0,0 751.72,452.13ZM749.07,443.3a2.28,2.28 0,0 0,-1.68 0.65,2.66 2.66,0 0,0 0,3.45 2.49,2.49 0,0 0,3.38 0,2.59 2.59,0 0,0 0,-3.43A2.28,2.28 0,0 0,749.07 443.3Z" id="path_133"/><path fill="#FCB61A" d="M747.27,498.79h1.92v1.44h-1.92v3.21L745.5,503.44v-3.21h-6.32v-1l6.21,-9.61h1.88ZM741.18,498.79h4.32L745.5,492l-0.21,0.38Z" id="path_134"/><path fill="#FCB61A" d="M739.59,551h-1.78V539.23l-3.55,1.31v-1.6l5,-1.9h0.28Z" id="path_135"/><path fill="#FCB61A" d="M750.54,551h-1.77V539.23l-3.56,1.31v-1.6l5,-1.9h0.28Z" id="path_136"/><path fill="#FCB61A" d="M433.9,306.44m-13.92,0a13.92,13.92 0,1 1,27.84 0a13.92,13.92 0,1 1,-27.84 0" id="path_137"/><path fill="#fff" d="M432.32,305.59h1.33a2.93,2.93 0,0 0,2 -0.66,2.18 2.18,0 0,0 0.71,-1.72 2.14,2.14 0,0 0,-2.42 -2.44,2.56 2.56,0 0,0 -1.83,0.65 2.3,2.3 0,0 0,-0.68 1.73h-1.76a3.55,3.55 0,0 1,1.2 -2.74,4.4 4.4,0 0,1 3.07,-1.09 4.34,4.34 0,0 1,3.07 1,3.71 3.71,0 0,1 1.12,2.88 3.07,3.07 0,0 1,-0.59 1.76,3.56 3.56,0 0,1 -1.59,1.26 3.36,3.36 0,0 1,1.76 1.2,3.31 3.31,0 0,1 0.63,2.05 3.78,3.78 0,0 1,-1.22 3,4.58 4.58,0 0,1 -3.17,1.1 4.66,4.66 0,0 1,-3.18 -1.06,3.48 3.48,0 0,1 -1.22,-2.79h1.77a2.28,2.28 0,0 0,0.71 1.75,2.73 2.73,0 0,0 1.92,0.66 2.64,2.64 0,0 0,1.95 -0.67,2.56 2.56,0 0,0 0.67,-1.91 2.31,2.31 0,0 0,-0.74 -1.86,3.27 3.27,0 0,0 -2.14,-0.67h-1.33Z" id="path_138"/><path fill="#fff" d="M114.35,449.08l3.8,32.39s-3.39,23.39 -2,38.47 -0.67,71.19 -0.53,72.16a86.17,86.17 0,0 1,-1.6 12.19c-0.62,2.28 -1.27,14.45 -0.44,17.66s6.49,2.56 6.49,2.56 28.16,-0.33 29.5,0 6.36,0 6.06,-2.24 -3.87,-2.21 -9.13,-5.12 -12.58,-10.6 -12.58,-10.6a44.2,44.2 0,0 1,-2.31 -8.67c-0.09,-2.56 7.38,-28.52 13.49,-52.9s4.22,-54.83 4.22,-54.83l2,-11.55c0.85,-4.81 3.94,-32.06 3.94,-32.06Z" id="path_139"/><path fill="#f9b499" d="M149.39,625.22c-1.18,-0.23 -18.17,-0.13 -29.19,0 -0.26,0 -6.45,0.69 -7.45,-3.22 -0.89,-3.42 -0.2,-15.79 0.44,-18.1a94,94 0,0 0,1.59 -11.82c0,-0.21 0,-1.64 0.18,-8.83 0.45,-16.83 1.41,-51.85 0.35,-63.29 -1.36,-14.47 1.69,-36.81 2,-38.57l-3.8,-32.27v-0.06a0.88,0.88 0,0 1,0.83 -0.93l41,-2.56a0.87,0.87 0,0 1,0.93 1c-0.12,1.11 -3.1,27.34 -3.95,32.13l-2,11.44c0.11,2 1.65,31.49 -4.23,55 -2.55,10.1 -5.28,20.34 -7.69,29.37 -3.12,11.76 -5.79,21.91 -5.79,23.29a39.53,39.53 0,0 0,2.21 8.21c1,1 7.5,7.7 12.22,10.28a41.23,41.23 0,0 0,5.17 2.32c2.39,1 4.12,1.66 4.42,3.53a2.2,2.2 0,0 1,-0.72 2,8.12 8.12,0 0,1 -5,1.36A6,6 0,0 1,149.39 625.22Z" id="path_140"/><path fill="#FCB61A" d="M156.53,622.11c-0.3,-1.87 -2,-2.54 -4.42,-3.53a41.23,41.23 0,0 1,-5.17 -2.32,26.15 26.15,0 0,1 -3.53,-2.36 0.87,0.87 0,0 0,-1.15 0L139,617l-25.62,-3.83a0.87,0.87 0,0 0,-0.71 0.21,0.89 0.89,0 0,0 -0.3,0.66 38.08,38.08 0,0 0,0.39 8c1,3.9 7.19,3.25 7.45,3.21 11,-0.12 28,-0.22 29.2,0a5.56,5.56 0,0 0,1.46 0.23,8.12 8.12,0 0,0 5,-1.36A2.2,2.2 0,0 0,156.53 622.11Z" id="path_141"/><path fill="#f9b499" d="M82.92,444l12.17,30.47a70,70 0,0 1,-1.77 11.87c-1.5,6.67 -3,25.64 -2,42s7.91,60.62 7,64.78 -11.18,18.6 -9.62,28.54 8.58,7.69 11.58,6.42 7.58,-2.88 8,-8.34 3.13,-14.77 3.62,-21.81S126.65,484 127.32,474.36s-5.65,-29.74 -5.65,-29.74Z" id="path_142"/><path fill="#FCB61A" d="M108.67,615.59a1,1 0,0 0,-0.46 0,19.09 19.09,0 0,1 -6.11,1.59c-3.27,0 -8.83,-1.43 -9.31,-2.42 0,-0.14 -0.44,-1.09 -0.72,-6.83a0.88,0.88 0,0 0,-0.73 -0.83,0.9 0.9,0 0,0 -1,0.53c-2.4,5.81 -3.28,10.42 -2.7,14.13s2,6.27 4.2,7.49a6.91,6.91 0,0 0,3.39 0.77,13.18 13.18,0 0,0 5.21,-1.23l0.52,-0.21c3,-1.28 7.55,-3.18 8,-8.83a22.92,22.92 0,0 1,0.44 -3.18A0.91,0.91 0,0 0,108.67 615.59Z" id="path_143"/><path fill="#FCB61A" d="M101.92,208.35s-34.84,18.77 -34.31,23.13 9.3,20.65 13.3,37.09 0.79,25.27 0.79,25.27 3.46,7.53 -1.59,22.08S67.55,346 68.37,381.69 81.7,454 81.7,454H161s10.65,-52.68 10.38,-81.42 -8,-44.7 -8.51,-45.76 -9.41,-22.83 -9.06,-29 0.62,-38.05 2.21,-43.11 1.32,-18.61 1.32,-18.61 36.47,-1.57 43.66,-3.71 22.08,-20 22.08,-20l-11.17,-14.37 -18.63,12 -27.94,-1.59s-13.56,-2.93 -20.75,-3.72 -21.81,1.06 -21.81,1.06Z" id="path_144"/><path fill="#2f2e41" d="M106.81,203.3s-8.53,1.06 -10.12,9 6.66,26.07 6.66,26.07l19.16,-8 14.89,2.67S132,214.3 130.5,211.9s-5.07,-6.93 -5.07,-6.93Z" id="path_145"/><path fill="#f9b499" d="M134.21,147.5s-8.87,-5.59 -16.85,-3.19 -21.28,12.22 -21.55,26.33 9,24.48 9,24.48 -1.06,7.72 0,11.44 15.1,21.55 17.58,23.95 2.2,-16.49 3.53,-20.75a57.9,57.9 0,0 1,4.25 -9.31s11.29,2.53 13.48,-2.38C159.86,161.86 134.21,147.5 134.21,147.5Z" id="path_146"/><path fill="#2f2e41" d="M104.41,134.47c-11.18,3 -16.76,11.18 -20.75,18.9S80,168.8 86.59,177.85s17,17.82 18.35,17.29 6.39,-8.52 6.39,-8.52 -4.25,-2.65 -5,-11.16a0.68,0.68 0,0 0,0 -0.14,8.3 8.3,0 0,1 6.93,-9.45s4.27,7.19 6.13,6.4 1.06,-4.79 1.06,-4.79l2.93,-4.8s18.1,-15.18 20.22,-19.43S126,132.86 126,132.86A63.83,63.83 0,0 0,104.41 134.47Z" id="path_147"/><path fill="#2f2e41" d="M85.74,168.79c-2.06,6.39 -7.43,9.57 -10.89,9.57s-11.43,-6.66 -12.51,-12.77 2.1,-14.36 4,-17 9.61,-4.25 14.13,-2.4a13.88,13.88 0,0 1,6.4 5.07S87.81,162.39 85.74,168.79Z" id="path_148"/><path fill="#f7a48b" d="M127.04,206.83l-2.41,-7.17l5.59,0.79l-3.18,6.38z" id="path_149"/><path fill="#FCB61A" d="M81,268.55l-6.9,29.53 9.84,3.53L80.2,316a85.86,85.86 0,0 1,-10.92 -1.85c-4.82,-1.54 -15,-4.05 -13.82,-6.13 0.9,-1.64 2.64,-27.67 5.58,-52.42s6.65,-23.95 6.65,-23.95C72.75,239.29 81,268.55 81,268.55Z" id="path_150"/><path fill="#2f2e41" d="M127.83,299.42l5.32,-16.76l10.65,2.14l-6.66,15.7l-9.31,-1.08z" id="path_151"/><path fill="#f9b499" d="M86.86,318.15l31.93,-4s6.9,0.27 9.57,-1.06a100.68,100.68 0,0 0,10.1 -7.45,5 5,0 0,0 3.73,-1.61 9.12,9.12 0,0 0,1.08 -4.25l-14.91,-2.12 1.59,-4.52s-8.25,2.65 -9,3.18a101.36,101.36 0,0 0,-5.85 9.06l-25,-1.35Z" id="path_152"/><path fill="#2f2e41" d="M76.21,318.06l10.12,1.85l7.7,-18.61l-12.22,-3.73l-5.6,20.49z" id="path_153"/><path fill="#f9b499" d="M226.54,209.21l28.73,-38.32 4.26,-1.59s6.9,-1.59 8.51,-4.26 1.34,-13 1.34,-13l5.05,-5s4,-1.52 5.06,-4.26 -2.92,-2.67 -9.31,0.8S251,162.11 251,162.11l-36.46,33.56Z" id="path_154"/><path fill="#f9b499" d="M258.47,164c2.4,-2.93 2.4,-12.5 2.4,-12.5a24.23,24.23 0,0 0,2.65 -9.06c0,-4 -2.93,-4.26 -4.26,-4.53s-0.53,5.06 -1.59,7.72 -4,6.15 -6.12,9.33 -4.79,12.77 -4.79,12.77" id="path_155"/><path fill="#f7a48b" d="M266.89,151.53c-1.57,0.58 -2,3.14 -1,4.91s6.72,-0.21 7.49,-1.18 0.2,-4.33 0.2,-4.33C272.14,149.36 268.47,151 266.89,151.53Z" id="path_156"/><path fill="#f7a48b" d="M265.53,158.22a0.41,0.41 0,0 1,0 0.09,2.55 2.55,0 0,0 1,3.45 15.17,15.17 0,0 0,7.07 0.79c1,-0.4 1.18,-2 1.37,-4.34s-3.14,-1.57 -3.14,-1.57S266.31,157.45 265.53,158.22Z" id="path_157"/><path fill="#f7a48b" d="M266.5,161.76s-2.17,1.57 -1.18,3.14 5.33,1.59 6.5,1 1.77,-3.34 1.77,-3.34C272.6,162.34 266.5,161.76 266.5,161.76Z" id="path_158"/><path fill="#2f2e41" d="M206.05,200.19l15.97,18.35l6.92,-9.57l-14.11,-15.71l-8.78,6.93z" id="path_159"/></svg>