<svg id="vector" xmlns="http://www.w3.org/2000/svg" width="374" height="351" viewBox="0 0 374 351"><defs><clipPath id="clip_path_0"><path d="M-2,0h376v351h-376z"/></clipPath></defs><g id="g_0"><path fill="#F2F2F2" d="M251.45,248.83H116.57C105.23,248.83 96.01,239.59 96.01,228.24V93.21C96.01,81.86 105.23,72.62 116.57,72.62H251.45C262.79,72.62 272.01,81.86 272.01,93.21V228.24C272.01,239.59 262.79,248.83 251.45,248.83ZM116.57,75.91C107.03,75.91 99.3,83.66 99.3,93.21V228.24C99.3,237.79 107.03,245.54 116.57,245.54H211.05C242.9,245.54 268.72,219.68 268.72,187.8V93.21C268.72,83.66 260.99,75.91 251.45,75.91H116.57V75.91Z" clip-path="url(#clip_path_0)"/><path fill="#F2F2F2" d="M131.11,89.96C124.73,89.96 119.53,95.16 119.53,101.55V119.69C119.53,126.08 124.73,131.28 131.11,131.28H149.23C155.62,131.28 160.81,126.08 160.81,119.69V101.55C160.81,95.16 155.62,89.96 149.23,89.96H131.11Z"/><path fill="#F2F2F2" d="M131.11,141.03C124.73,141.03 119.53,146.23 119.53,152.62V170.76C119.53,177.15 124.73,182.35 131.11,182.35H149.23C155.62,182.35 160.81,177.15 160.81,170.76V152.62C160.81,146.23 155.62,141.03 149.23,141.03H131.11Z"/><path fill="#F2F2F2" d="M131.11,192.1C124.73,192.1 119.53,197.3 119.53,203.69V221.83C119.53,228.22 124.73,233.42 131.11,233.42H149.23C155.62,233.42 160.81,228.22 160.81,221.83V203.69C160.81,197.3 155.62,192.1 149.23,192.1H131.11Z"/><path fill="#6C63FF" d="M143.13,45.7C135.08,45.7 128.54,52.25 128.54,60.3V83.16C128.54,91.21 135.08,97.76 143.13,97.76H165.96C174,97.76 180.55,91.21 180.55,83.16V60.3C180.55,52.25 174,45.7 165.96,45.7H143.13Z"/><path fill="#6C63FF" d="M218.3,109.58C210.25,109.58 203.71,116.13 203.71,124.18V147.04C203.71,155.09 210.25,161.65 218.3,161.65H241.13C249.17,161.65 255.72,155.09 255.72,147.04V124.18C255.72,116.13 249.17,109.58 241.13,109.58H218.3Z"/><path fill="#A0616A" d="M185.62,339.66L180.98,339.62L178.93,321.29L185.77,321.35L185.62,339.66Z"/><path fill="#2F2E41" d="M170.76,347.05C170.75,348.19 171.67,349.13 172.82,349.14L182.04,349.22L183.65,345.94L184.25,349.23L187.73,349.27L186.85,337.52L185.64,337.44L180.7,337.1L179.1,336.99L179.08,340.32L171.67,345.35C171.1,345.73 170.76,346.36 170.76,347.05H170.76Z"/><path fill="#A0616A" d="M209.22,339.66L204.58,339.62L202.53,321.29L209.37,321.35L209.22,339.66Z"/><path fill="#2F2E41" d="M194.36,347.05C194.35,348.19 195.27,349.13 196.42,349.14L205.64,349.22L207.25,345.94L207.85,349.23L211.32,349.27L210.45,337.52L209.24,337.44L204.3,337.1L202.71,336.99L202.68,340.32L195.27,345.35C194.71,345.73 194.37,346.36 194.36,347.05Z"/><path fill="#2F2E41" d="M167.41,191.47L186.22,192.06L204.03,196.02C204.03,196.02 202.25,198.2 208.19,204.15C208.19,204.15 216.1,218.02 210.56,231.49L208.19,285.39C208.19,285.39 215.11,323.38 209.82,335.47L202.83,335.91L190.99,285.83L185.23,231.89L182.46,284.99C182.46,284.99 193.06,321.44 186.36,335.91L178.79,335.47L165.83,284.99C165.83,284.99 160.29,226.74 161.08,215.64C161.87,204.54 167.41,191.47 167.41,191.47H167.41Z"/><path fill="#A0616A" d="M230.56,106.31C227.99,106.97 226.44,109.6 227.11,112.17C227.41,113.35 228.13,114.31 229.07,114.94L229.07,114.95L228.7,123.79L235.46,126.92L236,113.32L235.95,113.32C236.54,112.27 236.74,111.01 236.42,109.76C235.75,107.18 233.13,105.64 230.56,106.3V106.31Z"/><path fill="#3F3D56" d="M192.78,137.86C191.36,136.45 190.54,134.54 190.51,132.46C190.47,129.68 191.86,127.15 194.24,125.7C196.98,124.03 200.4,124.2 202.96,126.13L224.19,142.13L227.97,119.08L236.09,121.7L234.15,151.71C234.01,153.81 232.83,155.65 230.98,156.65C229.13,157.65 226.94,157.63 225.11,156.59L194.44,139.12C193.82,138.76 193.27,138.34 192.78,137.86V137.86Z"/><path fill="#A0616A" d="M160.42,93.41C161.78,95.7 161.03,98.65 158.75,100.01C157.7,100.63 156.51,100.81 155.41,100.6L155.4,100.6L149.44,107.14L142.44,104.6L151.63,94.56L151.66,94.59C151.98,93.44 152.72,92.4 153.83,91.74C156.12,90.38 159.07,91.13 160.42,93.41Z"/><path fill="#3F3D56" d="M163,142.17L128.93,132.96C126.9,132.41 125.33,130.88 124.71,128.87C124.1,126.86 124.56,124.71 125.94,123.12L145.67,100.45L153.28,104.31L139.75,123.34L166.08,126.94C169.25,127.38 171.8,129.67 172.57,132.79C173.24,135.49 172.45,138.27 170.46,140.22C168.98,141.67 167.05,142.45 165.05,142.45C164.37,142.45 163.68,142.36 163,142.17H163Z"/><path fill="#3F3D56" d="M211.56,199.4L163.93,201.58C162.62,199.6 162.97,196.6 164.8,192.86C171.72,178.72 166.47,151.96 162.93,138.03C161.94,134.13 164.6,130.24 168.61,129.84L173.1,129.39L177.26,116.7H191.8L197.83,123.6L208.07,129.83C206.2,149.04 198.26,176.18 209.57,189.79C212.05,192.76 212.75,195.98 211.56,199.4Z"/><path fill="#A0616A" d="M182.68,116.99C190.5,116.99 196.84,110.64 196.84,102.81C196.84,94.98 190.5,88.63 182.68,88.63C174.85,88.63 168.51,94.98 168.51,102.81C168.51,110.64 174.85,116.99 182.68,116.99Z"/><path fill="#2F2E41" d="M198.7,93.74C200.67,86.54 179.2,80.38 175.02,86.17C174.44,85.35 172.3,84.85 171.31,85.1C170.33,85.35 169.5,85.98 168.7,86.59C167.59,87.45 166.43,88.33 165.75,89.56C165.07,90.78 164.96,92.45 165.88,93.51C166.62,94.35 167.9,98.84 169,99.06C169.77,99.22 170.41,99.34 170.97,99.43C171.46,98.71 172.73,97.8 172.63,96.93C173.38,97.42 173.11,98.3 172.96,99.19C172.46,102.15 161.16,125.1 167.63,118.34C168.27,118.72 169.06,119.07 169.98,119.39C171.53,117.05 172.8,114.29 173.64,111.41L173.64,111.46C173.93,113.97 175.76,116.03 178.18,116.73C187.89,119.55 195.75,115.41 198.45,107.96C197.46,105.95 197.03,106.17 197.12,106.11C198.35,105.27 200.05,105.82 200.58,107.21C200.74,107.62 200.88,107.97 201.01,108.24C202.41,103.19 204.09,103.92 198.7,93.74H198.7Z"/><path fill="#2F2E41" d="M192,88.52L191.01,83.44C190.93,83.01 190.85,82.55 191.04,82.16C191.29,81.66 191.92,81.45 192.48,81.53C193.03,81.61 193.44,82.12 193.99,82.21C195.9,82.55 198.43,80.66 199.11,85.44C199.4,87.44 202.57,87.65 203.64,89.36C204.7,91.07 204.83,93.54 203.38,94.94C202.22,96.05 200.37,96.18 198.86,95.61C197.36,95.04 196.16,93.89 195.1,92.67C194.05,91.46 193.1,90.15 191.88,89.09"/><path fill="#6C63FF" d="M199.46,96.24C195.59,95.7 192.94,94.29 191.61,92.05C189.86,89.12 191.03,85.89 191.08,85.75L191.9,86.05C191.89,86.08 190.83,89.04 192.36,91.61C193.56,93.61 195.99,94.87 199.58,95.38L199.46,96.24Z"/><path fill="#6C63FF" d="M217.65,41.38C206.25,41.38 196.98,32.09 196.98,20.69C196.98,9.28 206.25,0 217.65,0C229.04,0 238.31,9.28 238.31,20.69C238.31,32.09 229.04,41.38 217.65,41.38ZM217.65,8.28C210.81,8.28 205.25,13.84 205.25,20.69C205.25,27.53 210.81,33.1 217.65,33.1C224.48,33.1 230.04,27.53 230.04,20.69C230.04,13.84 224.48,8.28 217.65,8.28Z"/><path fill="#6C63FF" d="M249.44,55.44C248.43,55.44 247.41,55.07 246.62,54.32L227.22,36.12C225.55,34.56 225.47,31.94 227.03,30.27C228.59,28.6 231.2,28.52 232.87,30.08L252.26,48.28C253.93,49.84 254.02,52.46 252.46,54.13C251.64,55 250.54,55.44 249.44,55.44Z"/><path fill="#F2F2F2" d="M337.1,339.2C338.5,339.29 339.28,337.54 338.21,336.52L338.11,336.1C338.12,336.06 338.14,336.03 338.15,336C339.57,332.6 344.39,332.63 345.8,336.02C347.05,339.04 348.64,342.06 349.03,345.25C349.21,346.66 349.13,348.09 348.82,349.47C351.75,343.06 353.29,336.07 353.29,329.03C353.29,327.26 353.19,325.49 352.99,323.73C352.83,322.29 352.61,320.85 352.32,319.43C350.75,311.75 347.35,304.44 342.45,298.33C340.1,297.04 338.14,295.03 336.95,292.61C336.52,291.74 336.19,290.8 336.03,289.85C336.3,289.89 337.04,285.8 336.84,285.55C337.21,284.98 337.88,284.7 338.29,284.15C340.32,281.39 343.11,281.87 344.57,285.61C347.69,287.19 347.72,289.8 345.81,292.31C344.59,293.91 344.42,296.07 343.36,297.78C343.46,297.92 343.58,298.06 343.69,298.2C345.7,300.79 347.45,303.57 348.91,306.49C348.5,303.24 349.11,299.33 350.15,296.81C351.34,293.94 353.57,291.52 355.54,289.04C357.89,286.06 362.73,287.36 363.14,291.14C363.15,291.18 363.15,291.21 363.15,291.25C362.86,291.41 362.58,291.59 362.3,291.77C360.71,292.83 361.26,295.3 363.14,295.59L363.18,295.59C363.08,296.64 362.9,297.69 362.64,298.71C365.15,308.46 359.72,312.01 351.96,312.17C351.79,312.26 351.62,312.35 351.45,312.43C352.23,314.65 352.86,316.92 353.33,319.23C353.74,321.26 354.04,323.32 354.2,325.39C354.4,327.99 354.38,330.62 354.16,333.22L354.17,333.13C354.73,330.26 356.29,327.58 358.55,325.73C361.91,322.96 366.66,321.94 370.29,319.72C372.04,318.65 374.28,320.03 373.97,322.06L373.96,322.15C373.42,322.38 372.89,322.63 372.38,322.92C372.09,323.08 371.8,323.26 371.52,323.44C369.93,324.49 370.48,326.96 372.37,327.25L372.41,327.26C372.44,327.27 372.47,327.27 372.5,327.27C371.57,329.48 370.28,331.52 368.66,333.29C367.09,341.8 360.33,342.6 353.09,340.13H353.09C352.3,343.57 351.14,346.94 349.66,350.15H337.4C337.36,350.02 337.32,349.88 337.28,349.74C338.41,349.81 339.55,349.74 340.67,349.54C339.76,348.42 338.85,347.29 337.94,346.18C337.92,346.15 337.9,346.13 337.89,346.11C337.42,345.54 336.96,344.97 336.5,344.4L336.5,344.4C336.47,342.64 336.68,340.89 337.1,339.2L337.1,339.2Z"/><path fill="#CCCCCC" d="M-2,350.19C-2,350.64 -1.64,351 -1.19,351H373.1C373.54,351 373.9,350.64 373.9,350.19C373.9,349.74 373.54,349.38 373.1,349.38H-1.19C-1.64,349.38 -2,349.74 -2,350.19Z"/></g></svg>