<svg id="vector" xmlns="http://www.w3.org/2000/svg" width="317" height="190" viewBox="0 0 317 190"><defs><clipPath id="clip_path_0"><path d="M0,0h317v190h-317z"/></clipPath></defs><g id="g_0"><path fill="#F2F2F2" d="M242.7,187.85C238.64,184.41 236.18,178.98 236.83,173.7C237.47,168.41 241.48,163.55 246.67,162.43C251.86,161.3 257.79,164.41 259.36,169.5C260.23,159.69 261.23,149.47 266.43,141.12C271.14,133.56 279.3,128.15 288.14,127.18C296.98,126.21 306.28,129.87 311.8,136.86C317.31,143.86 318.66,154.03 314.8,162.06C311.95,167.97 306.71,172.38 301.22,175.96C283.48,187.43 262.2,192.1 241.3,189.1L242.7,187.85Z" clip-path="url(#clip_path_0)"/><path fill="#ffffff" d="M303.05,130.07C295.76,136.03 289.07,142.69 283.08,149.96C273.7,161.3 266.11,174.01 260.58,187.65C260.17,188.65 261.79,189.08 262.18,188.1C271.24,165.92 285.7,146.38 304.23,131.25C305.07,130.57 303.88,129.4 303.05,130.07Z"/><path fill="#F2F2F2" d="M102.05,186.92C107.62,182.2 111.01,174.74 110.12,167.47C109.23,160.21 103.73,153.54 96.6,151.99C89.46,150.45 81.33,154.72 79.17,161.71C77.97,148.24 76.6,134.2 69.46,122.73C62.99,112.35 51.78,104.92 39.64,103.59C27.5,102.26 14.72,107.28 7.15,116.89C-0.42,126.49 -2.28,140.46 3.02,151.49C6.93,159.61 14.13,165.66 21.67,170.58C45.73,186.27 75.57,192.82 103.97,188.63"/><path fill="#ffffff" d="M19.15,107.56C29.17,115.74 38.36,124.89 46.59,134.87C54.82,144.85 62.07,155.6 68.23,166.98C71.67,173.36 74.77,179.93 77.5,186.65C78.05,188.01 75.84,188.61 75.29,187.26C70.45,175.41 64.47,164.06 57.43,153.38C50.42,142.74 42.4,132.81 33.48,123.72C28.44,118.59 23.11,113.73 17.53,109.18C16.39,108.25 18.02,106.63 19.15,107.56Z"/><path fill="#F2F2F2" d="M227.55,189.58H94.55V52.78C94.55,23.68 118.17,0 147.21,0H174.9C203.93,0 227.55,23.68 227.55,52.78V189.58Z"/><path fill="#CCCCCC" d="M199.86,189.58H94.55V52.78C94.52,41.63 98.05,30.76 104.61,21.75C104.85,21.42 105.09,21.1 105.34,20.78C108.51,16.6 112.29,12.93 116.55,9.87C116.79,9.7 117.03,9.52 117.27,9.35C120.83,6.88 124.68,4.86 128.74,3.34C128.98,3.25 129.23,3.16 129.47,3.07C133.14,1.76 136.94,0.86 140.81,0.39C141.05,0.36 141.29,0.33 141.54,0.3C145.3,-0.1 149.1,-0.1 152.87,0.3C153.12,0.33 153.36,0.36 153.61,0.39C157.47,0.86 161.27,1.76 164.94,3.07C165.18,3.16 165.43,3.25 165.67,3.34C169.68,4.84 173.48,6.83 177,9.26C177.25,9.43 177.49,9.6 177.74,9.78C180.12,11.48 182.36,13.38 184.43,15.46C186.1,17.13 187.64,18.9 189.07,20.78C189.32,21.1 189.56,21.42 189.8,21.75C196.36,30.76 199.88,41.63 199.86,52.78V189.58Z"/><path fill="#FCB61A" d="M191.29,128.4C194.51,128.4 197.12,125.78 197.12,122.55C197.12,119.33 194.51,116.71 191.29,116.71C188.07,116.71 185.46,119.33 185.46,122.55C185.46,125.78 188.07,128.4 191.29,128.4Z"/><path fill="#FFB8B8" d="M216.65,185.49H212.19L210.06,168.21L216.65,168.21L216.65,185.49Z"/><path fill="#2F2E41" d="M208.99,184.21H217.61V189.65H203.57C203.57,188.93 203.71,188.22 203.98,187.56C204.26,186.9 204.65,186.3 205.16,185.8C205.66,185.29 206.26,184.89 206.92,184.62C207.58,184.35 208.28,184.21 208.99,184.21Z"/><path fill="#FFB8B8" d="M238.88,185.49H234.41L232.29,168.21L238.88,168.21L238.88,185.49Z"/><path fill="#2F2E41" d="M231.22,184.21H239.84V189.65H225.8C225.8,188.93 225.94,188.22 226.21,187.56C226.48,186.9 226.88,186.3 227.39,185.8C227.89,185.29 228.49,184.89 229.15,184.62C229.8,184.35 230.51,184.21 231.22,184.21Z"/><path fill="#FFB8B8" d="M194.24,123.71C193.92,123.24 193.71,122.7 193.62,122.13C193.53,121.57 193.56,120.99 193.72,120.43C193.87,119.88 194.15,119.37 194.52,118.94C194.9,118.5 195.37,118.16 195.89,117.92L211.07,75.97L218.54,80.05L201.21,120.15C201.54,121.06 201.53,122.05 201.18,122.95C200.83,123.85 200.16,124.59 199.3,125.03C198.44,125.47 197.46,125.58 196.52,125.33C195.59,125.09 194.78,124.51 194.24,123.71Z"/><path fill="#FFB8B8" d="M236.6,131.6C236.1,131.31 235.67,130.92 235.34,130.45C235.01,129.98 234.79,129.45 234.69,128.88C234.59,128.32 234.61,127.74 234.76,127.18C234.91,126.63 235.18,126.11 235.54,125.67L230.84,81.29L239.34,81.68L241.3,125.33C241.99,126 242.42,126.9 242.5,127.87C242.58,128.83 242.3,129.79 241.72,130.56C241.14,131.33 240.3,131.86 239.36,132.05C238.41,132.24 237.43,132.08 236.6,131.6Z"/><path fill="#FFB8B8" d="M223.03,68.19C227.97,68.19 231.98,64.18 231.98,59.22C231.98,54.27 227.97,50.25 223.03,50.25C218.09,50.25 214.08,54.27 214.08,59.22C214.08,64.18 218.09,68.19 223.03,68.19Z"/><path fill="#0171CE" d="M236.54,121.5H209.56L209.59,121.29C209.64,120.98 214.4,89.72 210.89,79.49C210.54,78.48 210.57,77.38 210.98,76.4C211.38,75.42 212.14,74.62 213.1,74.16C218.12,71.79 227.75,68.88 235.88,75.96C237.08,77.01 238.01,78.34 238.61,79.82C239.21,81.3 239.46,82.91 239.33,84.5L236.54,121.5Z"/><path fill="#0171CE" d="M214.74,94.34L202.6,91.87L208.29,78.34C208.63,77.03 209.48,75.91 210.64,75.22C211.8,74.53 213.19,74.34 214.5,74.68C215.81,75.02 216.93,75.86 217.61,77.03C218.3,78.19 218.5,79.58 218.16,80.89L214.74,94.34Z"/><path fill="#0171CE" d="M230.3,98.92L229.57,82.14C229.01,78.99 230.82,76 233.59,75.52C236.36,75.03 239.06,77.22 239.62,80.4L242.37,96.08L230.3,98.92Z"/><path fill="#2F2E41" d="M235.64,119.49C239.98,136.07 240.46,157.14 239.29,180.13L233.46,179.4L222.89,135.57L217.06,180.13L210.5,179.76C208.54,155.65 206.63,134.94 209.77,121.32L235.64,119.49Z"/><path fill="#2F2E41" d="M228.93,66.15C227.26,67.94 224.16,66.98 223.94,64.55C223.92,64.36 223.93,64.17 223.94,63.98C224.06,62.9 224.68,61.92 224.53,60.78C224.5,60.5 224.39,60.23 224.22,59.99C222.89,58.21 219.77,60.79 218.51,59.18C217.74,58.18 218.65,56.62 218.06,55.52C217.28,54.05 214.97,54.77 213.52,53.97C211.91,53.08 212.01,50.6 213.07,49.1C214.36,47.26 216.63,46.28 218.87,46.14C221.11,45.99 223.33,46.6 225.42,47.42C227.8,48.35 230.16,49.63 231.62,51.72C233.4,54.27 233.57,57.7 232.68,60.67C232.14,62.49 230.29,64.7 228.93,66.15Z"/><path fill="#3F3D56" d="M306.06,189.82H37.05C36.94,189.82 36.83,189.77 36.75,189.69C36.66,189.61 36.62,189.5 36.62,189.38C36.62,189.27 36.66,189.16 36.75,189.08C36.83,189 36.94,188.95 37.05,188.95H306.06C306.18,188.95 306.29,189 306.37,189.08C306.45,189.16 306.49,189.27 306.49,189.38C306.49,189.5 306.45,189.61 306.37,189.69C306.29,189.77 306.18,189.82 306.06,189.82Z"/><path fill="#ffffff" d="M170.89,149.95H123.52C122.9,149.95 122.3,149.71 121.85,149.27C121.41,148.83 121.16,148.23 121.15,147.61V41.61C121.16,40.99 121.41,40.39 121.85,39.95C122.3,39.51 122.9,39.26 123.52,39.27H170.89C171.51,39.26 172.11,39.51 172.56,39.95C173,40.39 173.25,40.99 173.26,41.61V147.61C173.25,148.23 173,148.83 172.56,149.27C172.11,149.71 171.51,149.95 170.89,149.95Z"/><path fill="#CCCCCC" d="M173.26,73.57H121.15V74.3H173.26V73.57Z"/><path fill="#CCCCCC" d="M173.44,115.25H121.33V115.98H173.44V115.25Z"/><path fill="#CCCCCC" d="M138.28,39.27H137.55V150.32H138.28V39.27Z"/><path fill="#CCCCCC" d="M156.5,39.27H155.77V150.32H156.5V39.27Z"/></g></svg>