<svg id="vector" xmlns="http://www.w3.org/2000/svg" width="119" height="137" viewBox="0 0 119 137"><path fill="#00000000" d="M20.36,41.65C-0.5,96.5 86,70.5 99.36,123.65" stroke-width="2" stroke="#000000" id="path_0"/><path fill="#FCB61A" d="M18.56,0.01C16.3,0.21 14.06,0.86 12.15,1.87C10.78,2.59 9.76,3.31 8.65,4.34C6.45,6.4 4.94,9 4.33,11.8C3.78,14.3 3.92,16.87 4.72,19.25C5.1,20.37 5.61,21.41 6.38,22.66C6.98,23.62 8.98,26.88 9.2,27.24C9.33,27.45 9.54,27.79 9.66,27.99C9.79,28.19 10.12,28.72 10.4,29.17C10.68,29.63 11.21,30.49 11.58,31.09C11.96,31.69 12.53,32.63 12.87,33.17C13.21,33.72 13.61,34.36 13.76,34.61C13.91,34.85 14.31,35.49 14.64,36.03C14.97,36.56 15.44,37.33 15.69,37.73C15.95,38.13 16.19,38.54 16.25,38.62C16.3,38.71 16.4,38.87 16.46,38.97C16.6,39.18 17.79,41.1 18.21,41.8C18.6,42.42 18.83,42.66 19.26,42.85C19.52,42.96 19.6,42.98 19.9,43C20.5,43.02 20.97,42.84 21.36,42.44C21.46,42.34 21.75,41.91 22,41.49C22.26,41.07 22.6,40.52 22.75,40.28C22.91,40.03 23.34,39.34 23.71,38.73C24.08,38.13 24.66,37.2 24.99,36.67C26.74,33.85 27.93,31.92 29,30.2C29.32,29.67 29.9,28.74 30.28,28.13C30.65,27.52 31.1,26.8 31.26,26.54C31.42,26.27 31.84,25.6 32.18,25.05C32.69,24.21 33.38,23.09 33.7,22.56C35.04,20.36 35.65,18.69 35.95,16.36C36.02,15.83 36.02,13.77 35.95,13.26C35.76,11.88 35.5,10.83 35.08,9.73C34.44,8.1 33.39,6.43 32.18,5.14C29.83,2.62 26.68,0.9 23.24,0.26C22.05,0.03 21.8,0.01 20.2,0C19.38,-0 18.64,-0 18.56,0.01ZM21.42,9.54C22.09,9.68 22.54,9.82 23.2,10.12C23.95,10.47 24.39,10.77 25.02,11.34C25.74,12 26.18,12.59 26.56,13.39C27.73,15.86 27.16,18.74 25.12,20.66C24.12,21.6 22.97,22.21 21.59,22.51C20.9,22.66 19.78,22.71 19.04,22.61C16.26,22.25 13.99,20.43 13.16,17.91C12.96,17.29 12.91,16.94 12.91,16.04C12.91,15.27 12.92,15.14 13,14.77C13.61,12.04 15.88,9.99 18.79,9.51C19.3,9.43 19.38,9.43 20.2,9.44C20.82,9.45 21.04,9.47 21.42,9.54Z" fill-rule="evenodd" id="path_1"/><path fill="#0171CE" d="M97.56,81.01C95.3,81.21 93.06,81.86 91.15,82.87C89.78,83.59 88.76,84.31 87.65,85.34C85.45,87.4 83.94,90 83.33,92.8C82.78,95.3 82.92,97.87 83.72,100.25C84.1,101.36 84.61,102.41 85.38,103.66C85.98,104.62 87.98,107.88 88.2,108.24C88.33,108.45 88.54,108.79 88.66,108.99C88.79,109.19 89.12,109.72 89.4,110.17C89.68,110.63 90.21,111.49 90.58,112.09C90.96,112.69 91.53,113.63 91.87,114.17C92.21,114.72 92.61,115.36 92.76,115.61C92.91,115.86 93.31,116.49 93.64,117.03C93.97,117.56 94.44,118.32 94.69,118.73C94.95,119.13 95.19,119.54 95.25,119.63C95.3,119.71 95.4,119.87 95.46,119.96C95.6,120.18 96.79,122.1 97.21,122.8C97.6,123.42 97.83,123.66 98.26,123.85C98.52,123.96 98.6,123.98 98.9,124C99.5,124.02 99.97,123.84 100.36,123.44C100.46,123.34 100.75,122.91 101,122.49C101.26,122.07 101.6,121.52 101.75,121.28C101.91,121.03 102.34,120.34 102.71,119.73C103.08,119.13 103.66,118.2 103.99,117.67C105.74,114.85 106.93,112.92 108,111.19C108.32,110.67 108.9,109.74 109.28,109.13C109.65,108.52 110.1,107.8 110.26,107.54C110.42,107.27 110.84,106.6 111.18,106.05C111.69,105.21 112.38,104.1 112.7,103.56C114.04,101.36 114.65,99.69 114.95,97.36C115.02,96.83 115.02,94.77 114.95,94.26C114.76,92.88 114.5,91.83 114.07,90.73C113.44,89.1 112.39,87.43 111.18,86.14C108.83,83.62 105.68,81.9 102.24,81.26C101.04,81.03 100.8,81.01 99.2,81C98.38,81 97.64,81 97.56,81.01ZM100.42,90.54C101.09,90.68 101.54,90.82 102.2,91.12C102.95,91.47 103.39,91.77 104.02,92.34C104.74,93 105.18,93.59 105.56,94.39C106.73,96.86 106.16,99.74 104.12,101.66C103.12,102.61 101.97,103.21 100.59,103.51C99.9,103.66 98.78,103.71 98.04,103.61C95.26,103.25 92.99,101.43 92.16,98.91C91.96,98.29 91.91,97.94 91.91,97.04C91.91,96.27 91.92,96.14 92,95.77C92.61,93.04 94.88,90.99 97.79,90.51C98.3,90.43 98.38,90.43 99.2,90.44C99.82,90.45 100.04,90.47 100.42,90.54Z" fill-rule="evenodd" id="path_2"/></svg>