<svg width="327" height="123" viewBox="0 0 327 123" fill="none" xmlns="http://www.w3.org/2000/svg">
<path d="M0.240234 0H326.76V123H0.240234V0Z" fill="#F9F9F9"/>
<path fill-rule="evenodd" clip-rule="evenodd" d="M146.505 34.5447C146.511 33.6946 147.239 33.0068 148.139 33H177.831C178.734 33 179.465 33.6922 179.465 34.5447V59.4554C179.459 60.3054 178.731 60.9932 177.831 61H148.139C147.236 60.9992 146.505 60.3079 146.505 59.4554V34.5447ZM176.17 36.1112H149.801V57.8889L165.114 43.4316C165.758 42.8244 166.801 42.8244 167.445 43.4316L176.17 51.6823V36.1112ZM153.097 42.3333C153.097 44.0515 154.572 45.4444 156.393 45.4444C158.213 45.4444 159.689 44.0515 159.689 42.3333C159.689 40.6151 158.213 39.2222 156.393 39.2222C154.572 39.2222 153.097 40.6151 153.097 42.3333Z" fill="#687787"/>
</svg>
