<svg width="32" height="28" viewBox="0 0 32 28" fill="none" xmlns="http://www.w3.org/2000/svg">
<path fill-rule="evenodd" clip-rule="evenodd" d="M0.544067 1.77671C0.549922 0.939255 1.22887 0.261539 2.06871 0.254883H29.7581C30.6003 0.254883 31.2827 0.936861 31.2827 1.77671V26.3193C31.2769 27.1567 30.5979 27.8344 29.7581 27.8411H2.06871C1.22647 27.8403 0.544067 27.1592 0.544067 26.3193V1.77671ZM28.2091 7.32007C28.2091 5.11094 26.4182 3.32007 24.2091 3.32007H7.61811C5.40897 3.32007 3.61811 5.11094 3.61811 7.32007V15.1371C3.61811 18.6982 7.92144 20.484 10.4428 17.9692L17.8993 10.5323C18.4995 9.93405 19.4724 9.93405 20.0726 10.5323L21.382 11.8405C23.9024 14.3585 28.2091 12.5734 28.2091 9.01071V7.32007ZM6.69163 9.45023C6.69163 11.1431 8.06784 12.5154 9.76549 12.5154C11.4631 12.5154 12.8394 11.1431 12.8394 9.45023C12.8394 7.7574 11.4631 6.38509 9.76549 6.38509C8.06784 6.38509 6.69163 7.7574 6.69163 9.45023Z" fill="#687787"/>
</svg>
